<svg width="631" height="670" viewBox="0 0 631 670" fill="none" xmlns="http://www.w3.org/2000/svg">
<path fill-rule="evenodd" clip-rule="evenodd" d="M428.263 4.41429C426.479 6.2008 424.589 9.40199 424.064 11.527C423.538 13.6529 421.039 37.7663 418.51 65.1123C414.036 113.485 413.958 114.93 415.626 118.45C418.133 123.741 422.2 125.958 428.539 125.489C434.629 125.037 438.98 121.6 440.56 115.992C441.656 112.097 450.313 21.2777 450.313 13.6637C450.313 9.30388 449.908 8.37875 446.51 4.97546C442.979 1.43973 442.306 1.16699 437.106 1.16699C432.072 1.16699 431.177 1.49565 428.263 4.41429ZM231.009 87.0262C212.67 90.352 197.559 103.546 189.837 122.977C188.262 126.937 186.433 133.046 185.768 136.553C184.909 141.089 181.13 150.008 172.671 167.456C166.131 180.946 146.27 222.058 128.534 258.817L96.2886 325.652L91.8365 328.413C77.337 337.404 48.6202 356.724 39.3869 363.699C19.2109 378.943 11.0061 389.243 5.4255 406.336C2.77481 414.454 2.31834 417.448 1.90986 429.425C1.18498 450.671 4.89164 464.681 15.5522 480.986C27.7497 499.639 39.7336 508.936 60.4474 515.815C68.1497 518.374 69.9119 518.58 83.9569 518.57C97.9538 518.561 99.7523 518.349 106.977 515.862C111.287 514.378 118.433 511.21 122.856 508.822L130.899 504.481L135.199 510.597C137.563 513.961 159.682 546.512 184.35 582.934C209.019 619.356 230.575 650.648 232.251 652.472C235.933 656.478 246.387 663.379 252.441 665.799C258.2 668.102 273.938 668.931 282.058 667.36C295.524 664.755 305.461 657.885 314.234 645.115C322.984 632.378 324.367 612.941 317.682 596.669C316.463 593.701 295.995 562.399 272.199 527.107C248.402 491.816 228.932 462.669 228.932 462.337C228.932 462.005 264.748 458.652 308.521 454.886C371.132 449.5 391.039 448.107 401.84 448.359C423.535 448.864 434.475 445.378 446.372 434.171C454.194 426.801 459.263 418.457 462.978 406.834C480.715 351.351 448.067 257.144 383.539 177.607C371.76 163.089 344.805 136.068 331.786 125.728C304.049 103.699 277.803 90.5551 254.4 86.9732C243.376 85.2868 240.565 85.2927 231.009 87.0262ZM574.227 98.7096C568.599 101.243 483.257 159.719 481.24 162.423C476.516 168.761 479.756 180.166 487.161 183.264C494.632 186.391 495.176 186.136 527.497 164.362C580.788 128.46 590.429 121.709 592.139 119.094C593.164 117.527 593.818 114.601 593.818 111.579C593.818 101.067 583.724 94.4362 574.227 98.7096ZM230.192 112.469C213.621 117.656 205.362 131.271 203.882 155.843C200.846 206.22 236.182 286.286 287.791 345.971C299.035 358.975 320.19 379.607 331.786 388.878C381.943 428.98 427.014 435.195 441.581 404.02C446.379 393.75 447.653 385.451 447.021 368.573C446.41 352.243 444.487 341.214 439.042 322.799C408.494 219.506 307.508 110.66 242.646 111.118C238.066 111.15 232.462 111.758 230.192 112.469ZM176.806 213.075C171.729 223.597 156.652 254.813 143.3 282.442L119.024 332.679L156.101 386.768L193.178 440.856L201.504 440.228C226.875 438.312 336.832 428.986 341.42 428.361L345.666 427.782L335.352 420.742C286.314 387.272 236.276 324.666 208.38 261.879C199.933 242.869 194.468 227.247 189.763 208.661L186.038 193.945L176.806 213.075ZM289.665 218.41C276.771 221.107 263.917 226.267 260.278 230.205C256.602 234.182 256.798 241.3 260.694 245.374C265.04 249.917 268.835 250.182 278.26 246.6C290.777 241.842 298.703 240.339 309.313 240.709C317.849 241.007 319.34 241.365 326.224 244.774C344.103 253.631 352.882 270.561 349.482 289.619C347.425 301.142 342.99 308.626 332.012 319.091C326.769 324.088 321.944 329.098 321.29 330.226C316.489 338.492 325.328 349.461 334.53 346.656C338.815 345.35 350.257 335.654 357.29 327.369C362.964 320.685 369.036 308.815 371.593 299.409C373.93 290.807 373.963 273.697 371.657 265.182C366.075 244.566 351.878 229.23 330.619 220.844C323.058 217.862 321.54 217.614 309.256 217.356C300.834 217.179 293.72 217.562 289.665 218.41ZM508.288 243.502C501.758 245.001 497.354 252.297 498.686 259.407C499.444 263.454 504.136 268.512 508.413 269.891C514.867 271.973 616.086 288.598 618.635 287.995C623.525 286.839 627.435 283.041 628.35 278.554C630.022 270.363 626.085 263.146 618.838 261.111C616.93 260.575 592.888 256.379 565.411 251.788C537.934 247.196 514.572 243.285 513.494 243.098C512.417 242.91 510.074 243.092 508.288 243.502ZM79.9828 364.257C38.8344 391.431 29.9008 400.65 26.1334 419.83C24.3555 428.881 25.3831 446.444 28.1503 454.313C30.9685 462.327 40.5388 476.684 46.5161 481.864C52.1065 486.71 62.7504 492.112 70.6936 494.134C77.5613 495.882 89.0369 496.066 95.5225 494.533C106.76 491.875 132.324 476.583 160.626 455.585L170.195 448.486L166.25 442.867C164.08 439.776 148.974 417.858 132.681 394.161C116.389 370.464 102.592 350.92 102.023 350.731C101.454 350.541 91.5357 356.629 79.9828 364.257ZM191.28 464.952C188.223 465.265 183.709 468.003 169.485 478.171C159.619 485.223 151.573 491.483 151.606 492.08C151.64 492.678 173.591 525.395 200.386 564.785C246.072 631.942 249.459 636.645 254.762 640.31C259.894 643.858 261.093 644.253 267.723 644.589C278.128 645.115 285.093 642.39 291.617 635.241C294.615 631.956 296.902 628.342 297.589 625.802C298.897 620.972 298.188 611.006 296.197 606.233C295.431 604.399 273.783 571.697 248.09 533.562C202.024 465.192 201.331 464.228 198.256 464.391C196.541 464.482 193.402 464.734 191.28 464.952Z" fill="black"/>
</svg>
