<svg width="634" height="609" viewBox="0 0 634 609" fill="none" xmlns="http://www.w3.org/2000/svg">
<path fill-rule="evenodd" clip-rule="evenodd" d="M7.70843 3.08718C-2.16608 8.79361 -2.35439 22.106 7.35633 28.0246C9.97992 29.623 13.4215 29.8703 39.1131 30.3064L67.9274 30.7952L77.1213 68.434C90.0705 121.448 139.404 325.832 143.745 344.448C145.73 352.96 146.97 360.247 146.5 360.641C146.031 361.036 142.998 362.146 139.762 363.11C126.173 367.155 112.768 376.328 104.936 386.94C89.3909 408.005 90.9052 436.595 108.574 455.618C114.623 462.132 123.217 468.599 130.993 472.49C136.442 475.215 148.573 478.035 155.168 478.107L159.377 478.153L154.313 480.796C139.246 488.657 127.539 502.136 122.069 517.921C109.772 553.4 128.487 591.766 163.888 603.653C174.596 607.247 190.201 608.118 200.57 605.7C221.166 600.895 239.501 585.336 247.872 565.559C257.654 542.454 252.535 514.059 235.188 495.187C228.775 488.212 223.521 484.25 214.914 479.897L209.397 477.108L359.457 477.125L509.516 477.14L502.651 480.757C493.33 485.669 481.258 497.728 476.481 506.901C470.42 518.541 468.332 526.833 468.362 539.163C468.379 546.2 468.975 552.113 470.088 556.272C475.219 575.435 488.526 591.342 506.574 599.886C516.468 604.57 523.743 606.182 535.017 606.188C547.029 606.196 557.369 603.75 567.239 598.568C576.814 593.541 589.7 580.725 594.533 571.425C612.038 537.734 600.075 498.315 566.796 480.03L561.498 477.119L577.043 477.101L592.589 477.084L595.846 473.837C601.658 468.043 601.375 458.347 595.242 453.204L592.242 450.688H369.812H147.382L140.517 447.265C132.617 443.325 125.426 436.268 122.427 429.512C120.86 425.979 120.517 423.536 120.822 418.057C121.301 409.448 123.438 404.814 129.919 398.336C135.682 392.575 141.372 389.609 149.57 388.093C153.625 387.343 206.678 386.752 320.226 386.193C488.989 385.361 529.863 384.804 541.882 383.166C557.942 380.98 572.791 369.001 578.198 353.87C579.056 351.468 582.369 338.228 585.561 324.447C592.986 292.391 600.656 260.499 618.961 185.566C635.234 118.952 634.899 121.345 628.946 114.294C623.972 108.4 625.303 108.517 562.654 108.517H505.391L502.681 100.214C494.97 76.5815 479.613 54.0853 460.342 38.189C426.59 10.3461 382.999 0.150378 340.779 10.2239C294.833 21.187 257.994 54.8605 242.87 99.7181L240.398 107.05L175.682 107.302C114.666 107.539 110.937 107.455 110.47 105.835C109.845 103.671 88.6876 16.1923 87.8285 12.2202C87.038 8.56973 84.6517 5.63977 80.3294 3.01288C77.1252 1.06544 75.6776 0.985274 44.1356 1.00385C12.5005 1.02145 11.1471 1.09868 7.70843 3.08718ZM353.983 31.241C330.784 35.4301 309.166 46.6866 292.777 63.1137C249.003 106.987 248.079 176.809 290.679 221.718C324.845 257.737 377.305 267.182 422.292 245.414C454.949 229.613 478.423 198.276 484.562 162.287C486.321 151.979 486.049 131.293 484.031 121.715C474.913 78.4645 443.13 44.5456 401.412 33.5443C393.247 31.3915 389.346 30.9721 375.149 30.7228C365.979 30.5615 356.455 30.7952 353.983 31.241ZM364.841 72.5889C357.596 77.5044 357.549 77.6902 357.005 103.942L356.515 127.581L332.799 128.069C306.77 128.606 306.634 128.637 301.652 135.289C298.85 139.03 298.85 147.416 301.652 151.156C306.634 157.808 306.77 157.839 332.799 158.376L356.515 158.865L357.005 182.504C357.46 204.431 357.641 206.338 359.518 208.839C362.819 213.243 366.378 215.325 371.399 215.791C376.6 216.274 381.035 214.053 384.687 209.138C387.738 205.03 388.342 200.025 388.366 178.662L388.39 158.376H411.293C433.492 158.376 434.298 158.308 437.506 156.153C442.388 152.874 445.275 148.068 445.275 143.223C445.275 138.378 442.388 133.572 437.506 130.293C434.298 128.138 433.492 128.069 411.293 128.069H388.39L388.366 107.784C388.354 96.6269 387.942 85.7722 387.451 83.6625C385.689 76.0908 379.141 70.3892 372.207 70.3892C369.545 70.3892 366.934 71.1694 364.841 72.5889ZM617.134 129.613C618.065 130.582 619.038 131.165 619.296 130.908C619.554 130.65 618.792 129.858 617.604 129.145C615.537 127.908 615.516 127.93 617.134 129.613ZM116.987 133.236C117.599 134.827 153.303 282.462 164.088 327.995L172.192 362.212L335.46 361.952C425.258 361.809 508.326 361.303 520.056 360.826C540.241 360.005 541.607 359.828 545.556 357.512C550.772 354.453 553.642 351.424 555.484 347.029C556.273 345.146 560.283 329.149 564.393 311.482C568.504 293.814 579.795 246.774 589.485 206.95C599.176 167.124 607.104 133.965 607.104 133.26C607.104 132.222 597.874 131.98 558.31 131.982L509.516 131.984L509.4 144.936C509.336 152.14 508.555 162.009 507.642 167.175C500.185 209.351 472.14 247.019 433.917 266.196C402.677 281.87 364.438 284.794 331.118 274.058C308.897 266.897 290.233 255.198 273.953 238.223C249.286 212.503 236.272 180.53 235.983 144.937L235.878 131.986L176.191 131.983C127.983 131.981 116.597 132.221 116.987 133.236ZM525.209 497.016C517.657 498.851 508.404 504.261 503.481 509.72C487.424 527.52 487.759 553.226 504.262 569.735C514.155 579.629 523.405 583.129 537.989 582.494C546.022 582.144 547.88 581.69 554.348 578.504C563.434 574.027 570.703 566.636 575 557.502C577.664 551.841 578.165 549.543 578.496 541.458C578.789 534.293 578.469 530.76 577.167 526.793C569.901 504.656 547.232 491.665 525.209 497.016ZM175.319 497.696C163.646 500.439 151.636 510.283 145.972 521.751C142.818 528.137 142.704 528.778 142.704 540.12C142.704 551.276 142.86 552.195 145.77 558.227C154.073 575.438 169.74 584.588 188.873 583.398C195.981 582.956 198.465 582.312 204.485 579.346C221.588 570.919 231.691 552.05 228.708 534.103C225.803 516.628 213.155 502.428 196.686 498.153C190.366 496.513 181.189 496.317 175.319 497.696Z" fill="black"/>
</svg>
