<svg width="632" height="628" viewBox="0 0 632 628" fill="none" xmlns="http://www.w3.org/2000/svg">
<g clip-path="url(#clip0_108_525)">
<path fill-rule="evenodd" clip-rule="evenodd" d="M196.887 1.20272C191.004 2.37433 185.983 6.14599 182.993 11.6433L180.458 16.3028V136.614V256.926L126.304 257.204L72.15 257.482L67.4613 260.382C64.0494 262.494 62.043 264.683 60.0875 268.429L57.4014 273.573V391.778V509.984L37.4527 510.005C20.0623 510.023 17.0108 510.255 13.6585 511.813C8.7814 514.08 5.99339 516.762 3.56494 521.525C1.83061 524.927 1.64314 527.168 1.66236 544.334C1.6864 565.921 2.38628 568.849 8.7814 574.123C13.3566 577.897 18.0155 579.241 26.5083 579.241H33.3668L33.3726 593.911C33.3784 610.589 34.0139 613.814 38.3266 619.044C43.8517 625.747 46.3917 626.333 69.8994 626.333C93.2091 626.333 95.6856 625.782 101.34 619.338C105.655 614.422 106.42 610.594 106.426 593.911L106.432 579.241H192.956H279.481V593.244C279.481 600.946 279.952 609.117 280.527 611.404C281.84 616.622 286.168 621.947 291.351 624.72C295.129 626.742 296.482 626.856 316.494 626.856H337.645L342.232 624.158C344.756 622.674 348.001 619.677 349.443 617.499C352.009 613.624 352.072 613.175 352.367 596.87L352.67 580.203H381.481C413.489 580.203 415.416 579.897 418.856 574.249C422.21 568.747 420.81 561.176 415.789 557.657C413.865 556.309 393.845 556.156 219.18 556.156H24.7144V544.613V533.07H316.013H607.312V544.613V556.156H533.782H460.252L457.257 558.832C453.466 562.221 452.425 568.618 454.89 573.386C457.776 578.971 459.594 579.241 494.259 579.241H525.474L525.775 596.477L526.076 613.712L528.968 617.827C530.718 620.315 533.747 622.912 536.633 624.398C541.316 626.81 541.795 626.856 562.101 626.856C581.644 626.856 583.019 626.737 586.79 624.72C591.973 621.947 596.301 616.622 597.614 611.404C598.189 609.117 598.66 600.946 598.66 593.244V579.241H605.518C614.216 579.241 618.852 577.842 623.588 573.786C629.88 568.397 630.543 565.273 630.202 542.642L629.905 522.97L627.155 518.915C625.387 516.307 622.66 513.989 619.516 512.422C614.79 510.066 614.004 509.984 596.068 509.984H577.51V391.778V273.573L574.823 268.429C572.868 264.683 570.862 262.494 567.449 260.382L562.761 257.482L507.256 257.212L451.75 256.941L452.285 216.782C452.781 179.563 452.694 176.356 451.103 173.002C447.041 164.436 433.999 164.098 429.711 172.445C428.827 174.168 428.52 184.76 428.51 213.955L428.495 253.153H316.013H203.532V138.686V24.2184H232.854H262.176L262.211 60.0496C262.252 103.3 262.937 112.967 266.38 118.845C270.853 126.482 280.383 128.76 289.095 124.275C291.474 123.051 298.474 118.662 304.649 114.523L315.877 106.997L330.354 116.51C338.317 121.742 346.145 126.312 347.749 126.664C356.891 128.673 366.704 122.414 368.98 113.121C369.488 111.045 370.175 90.194 370.506 66.783L371.106 24.2184H399.801H428.495V71.4444C428.495 114.231 428.649 118.931 430.135 121.448C433.516 127.173 442.052 128.622 447.701 124.431C452.682 120.735 452.788 119.303 452.088 65.5912C451.379 11.3336 451.544 12.7995 445.447 6.69909C438.984 0.231193 447.907 0.666939 318.417 0.505337C253.908 0.424537 199.22 0.739082 196.887 1.20272ZM285.457 60.6922C285.607 80.7519 286.007 97.442 286.344 97.7796C286.683 98.1173 291.531 95.3787 297.117 91.6946C314.449 80.2651 316.862 80.2546 334.475 91.5272L346.297 99.0936L346.901 85.9443C347.232 78.7126 347.557 61.8657 347.622 48.5067L347.739 24.2184H316.461H285.183L285.457 60.6922ZM223.24 157.35C216.856 160.168 214.588 167.1 218.58 171.585C222.429 175.909 224.816 176.2 256.408 176.2C279.454 176.2 286.979 175.901 289.366 174.89C298.578 170.989 298.578 161.212 289.366 157.31C284.967 155.447 227.47 155.481 223.24 157.35ZM223.24 188.131C216.856 190.949 214.588 197.881 218.58 202.366C222.429 206.69 224.816 206.982 256.408 206.982C279.454 206.982 286.979 206.682 289.366 205.672C298.578 201.77 298.578 191.993 289.366 188.092C284.967 186.228 227.47 186.262 223.24 188.131ZM224.084 218.945C215.794 222.555 215.919 232.92 224.297 236.422C226.801 237.468 233.911 237.763 256.737 237.763C272.816 237.763 287.316 237.493 288.961 237.165C292.725 236.411 296.506 232.962 297.378 229.486C298.372 225.522 295.232 220.259 291.016 218.819C285.921 217.081 228.117 217.188 224.084 218.945ZM86.1583 282.28C84.3701 283.486 82.3656 285.543 81.7042 286.849C80.7649 288.707 80.4996 312.288 80.489 394.843C80.4736 509.495 80.2131 503.853 85.6795 507.437C87.8888 508.885 97.2084 509.022 193.5 509.022H298.901L302.169 505.751L305.438 502.481V395.564C305.438 277.565 305.824 284.745 299.327 281.66C296.506 280.321 292.021 280.087 269.125 280.087H242.235L241.722 323.613C241.37 353.418 240.843 368.353 240.049 370.988C238.43 376.362 232.715 381.545 226.858 382.951C220.272 384.531 216.748 383.114 200.588 372.391L187.225 363.522L173.948 372.253C159.155 381.979 157.004 383.011 151.524 383.011C143.422 383.011 137.407 378.026 135.251 369.525C134.561 366.806 133.965 349.514 133.633 322.652L133.109 280.087H111.26C90.1086 280.087 89.3078 280.157 86.1583 282.28ZM156.569 317.027C156.754 337.359 157.168 354.258 157.49 354.58C157.812 354.902 162.236 352.323 167.322 348.848C185.712 336.285 188.599 336.38 209.191 350.233L217.768 356.003L218.398 345.219C218.745 339.288 218.895 322.315 218.731 307.501L218.433 280.568L187.333 280.314L156.234 280.06L156.569 317.027ZM336.601 281.454C334.971 282.165 332.699 283.937 331.554 285.394L329.473 288.042V395.132V502.221L332.457 505.622L335.44 509.022H441.558H547.676L550.816 506.215L553.956 503.408L554.209 396.237L554.461 289.065L552.252 285.779C548.857 280.727 546.01 280.202 521.633 280.141L499.886 280.087L499.372 323.613C499.02 353.418 498.493 368.353 497.699 370.988C495.198 379.292 484.806 385.232 476.633 383.03C474.604 382.483 466.592 377.879 458.828 372.797L444.712 363.559L432.243 371.905C417.782 381.586 414.77 383.011 408.77 383.011C403.398 383.011 399.555 381.139 396.433 377.001C392.068 371.214 391.811 368.534 391.268 323.132L390.752 280.087L365.159 280.124C345.921 280.153 338.831 280.483 336.601 281.454ZM414.227 317.027C414.408 337.36 414.858 354.298 415.229 354.669C415.599 355.039 419.4 352.891 423.673 349.895C442.855 336.446 446.108 336.467 466.47 350.181L475.122 356.008L475.857 348.169C476.261 343.858 476.477 326.883 476.337 310.449L476.084 280.568L444.992 280.314L413.9 280.06L414.227 317.027ZM95.2684 413.773C89.8894 415.948 87.4504 423.693 90.8306 427.868C94.1205 431.931 95.3885 432.069 129.538 432.069H162.384L165.653 428.798C169.299 425.151 169.904 421.397 167.421 417.849C164.027 413 162.675 412.826 128.832 412.891C111.489 412.925 96.3855 413.322 95.2684 413.773ZM349.774 415.362C348.543 416.224 346.927 418.389 346.183 420.171C345.01 422.978 345.019 423.867 346.25 426.813C348.74 432.777 350.35 433.031 385.731 433.031C420.452 433.031 421.702 432.834 424.157 426.955C425.89 422.806 424.993 419.062 421.578 416.187L418.734 413.793H385.373C356.087 413.793 351.739 413.984 349.774 415.362ZM95.2587 444.994C86.9687 448.604 87.0937 458.969 95.4712 462.471C97.9756 463.518 105.086 463.812 127.912 463.812C143.99 463.812 158.491 463.543 160.136 463.214C163.9 462.461 167.681 459.011 168.553 455.535C169.547 451.572 166.407 446.308 162.191 444.868C157.096 443.13 99.2917 443.238 95.2587 444.994ZM349.774 446.143C348.543 447.006 346.927 449.17 346.183 450.952C345.01 453.759 345.019 454.648 346.25 457.594C348.74 463.558 350.35 463.812 385.731 463.812C420.452 463.812 421.702 463.615 424.157 457.736C425.89 453.587 424.993 449.843 421.578 446.968L418.734 444.574H385.373C356.087 444.574 351.739 444.765 349.774 446.143ZM97.1383 475.062C94.2493 475.625 90.2913 479.502 89.5376 482.506C88.7108 485.801 90.6162 490.225 93.7907 492.382C96.0855 493.941 99.3773 494.142 127.102 494.418C147.406 494.619 159.074 494.366 161.419 493.674C170.796 490.902 171.534 479.479 162.578 475.734C160.042 474.674 153.073 474.421 129.296 474.524C112.755 474.596 98.2842 474.838 97.1383 475.062ZM349.8 476.896C348.555 477.773 346.927 479.951 346.183 481.733C344.269 486.313 346.353 491.227 351.038 493.185C356.183 495.336 415.784 495.25 419.966 493.087C425.606 490.168 426.694 482.422 422.072 478.076L419.69 475.836L385.878 475.568C355.651 475.327 351.825 475.469 349.8 476.896ZM56.44 591.265V603.289H69.8994H83.3588V591.265V579.241H69.8994H56.44V591.265ZM302.554 591.265V603.289H316.013H329.473V591.265V579.241H316.013H302.554V591.265ZM548.668 591.265V603.289H562.127H575.587V591.265V579.241H562.127H548.668V591.265Z" fill="black"/>
</g>
<defs>
<clipPath id="clip0_108_525">
<rect width="630.667" height="627.167" fill="white" transform="translate(0.679688 0.17041)"/>
</clipPath>
</defs>
</svg>
