<svg width="634" height="620" viewBox="0 0 634 620" fill="none" xmlns="http://www.w3.org/2000/svg">
<g clip-path="url(#clip0_108_531)">
<path fill-rule="evenodd" clip-rule="evenodd" d="M340.7 0.936087C333.838 3.01547 333.369 3.86368 329.036 22.0247L324.982 39.0183L310.948 30.2835C296.811 21.4831 294.408 20.6319 289.192 22.5742C287.676 23.1384 276.805 33.165 265.034 44.8568C244.267 65.4841 239.995 70.7976 239.942 76.0671C239.93 77.2326 243.577 84.0643 248.045 91.2486C252.514 98.4329 256.486 104.83 256.872 105.463C257.368 106.278 252.908 107.71 241.647 110.353C229.469 113.21 225.233 114.61 223.649 116.301L221.579 118.514H166.653H111.728L110.857 115.33C110.378 113.58 104.96 91.2359 98.8147 65.678C88.0947 21.0844 87.5159 19.0805 84.4684 16.0109C79.4908 10.9961 76.5452 10.6405 42.7928 10.9677C14.0308 11.2458 12.04 11.381 8.81625 13.2753C-1.28879 19.2127 -1.60901 31.3609 8.14839 38.5981C10.7807 40.5501 12.2711 40.6608 39.7072 40.9458L68.5025 41.2455L69.4612 44.8636C70.5913 49.1301 97.1568 158.685 116.651 239.476C131.518 301.092 147.869 370.11 147.869 371.249C147.869 371.64 145.776 372.475 143.218 373.106C140.659 373.737 134.6 376.179 129.753 378.532C107.532 389.321 94.9887 407.868 94.9887 429.934C94.9887 450.009 104.648 466.634 123.636 479.24C132.867 485.368 139.254 487.51 153.602 489.289L158.846 489.938L153.346 493.016C141.052 499.896 132.269 509.087 125.963 521.67C115.012 543.519 116.666 568.651 130.405 589.197C138.677 601.566 151.123 610.878 165.965 615.799C172.815 618.072 175.384 618.401 186.06 618.377C196.603 618.353 199.388 617.991 206.135 615.769C226.713 608.991 243.088 592.984 249.656 573.228C255.7 555.049 254.016 536.742 244.654 518.841C240.19 510.306 226.808 497.088 217.887 492.404L211.032 488.804L359.88 488.793L508.728 488.783L503.438 491.7C486.015 501.305 474.874 515.944 469.914 535.749C466.082 551.048 468.624 569.138 476.658 583.755C480.931 591.528 493.882 604.737 501.384 608.974C540.993 631.338 591.057 609.486 600.826 565.566C604.418 549.418 601.206 529.794 592.662 515.692C587.544 507.242 576.655 496.778 568.464 492.437L561.609 488.804L577.62 488.776L593.631 488.747L596.883 485.495C602.479 479.897 602.441 470.483 596.8 465.182L594.256 462.792L370.818 462.302L147.379 461.812L141.805 459.075C124.184 450.419 116.276 432.869 123.621 418.716C126.366 413.429 133.548 406.029 139.056 402.812C147.848 397.677 140.852 397.871 361.839 396.638C462.366 396.077 532.193 395.308 538.106 394.696C550.632 393.401 557.428 390.33 566.475 381.878C575.18 373.746 577.618 368.487 582.737 346.798C592.677 304.683 616.853 204.014 624.859 171.407C630.894 146.82 633.446 134.741 633.031 132.719C632.699 131.101 631.367 128.137 630.072 126.132C625.564 119.15 627.253 119.349 573.486 119.456L525.298 119.552L523.247 116.777C521.405 114.285 519.537 113.614 504.925 110.2C495.975 108.109 488.653 106.006 488.653 105.527C488.653 105.048 492.399 98.6014 496.977 91.2006C501.555 83.7999 505.301 76.9858 505.301 76.0593C505.301 71.1532 501.26 66.0894 481.545 46.2917C461.241 25.9034 455.743 21.5477 450.316 21.5477C449.148 21.5477 442.074 25.349 434.597 29.9955C427.12 34.642 420.858 38.2778 420.682 38.076C420.505 37.8742 418.716 30.6566 416.707 22.0375C414.582 12.9275 412.375 5.70701 411.437 4.79122C410.549 3.92538 407.94 2.49244 405.641 1.60799C402.08 0.238715 397.134 0.0124615 372.346 0.0839617C356.333 0.129996 342.093 0.513942 340.7 0.936087ZM352.634 43.1153L349.442 56.8473L343.889 60.4497C337.823 64.3851 330.85 67.1354 324.399 68.1355C320.504 68.7398 319.571 68.3588 308.932 61.8141C302.705 57.9834 297.291 54.8492 296.903 54.8492C296.515 54.8492 290.98 60.0814 284.604 66.4753C271.283 79.8341 271.678 76.737 281.343 92.0684L287.21 101.373L286.128 107.769C284.992 114.485 283.736 117.813 279.307 125.841L276.616 130.72L262.674 134.011L248.733 137.302V154.272V171.241L257.792 173.326C276.978 177.743 276.433 177.47 280.873 184.865C283.235 188.798 285.481 194.251 286.411 198.305L287.974 205.128L280.533 217.339L273.094 229.551L285.15 241.536L297.207 253.522L308.805 246.254C315.184 242.257 321.133 238.989 322.026 238.99C324.439 238.995 337.566 244.131 343.722 247.478L349.108 250.407L352.484 264.307L355.86 278.209L372.964 277.941L390.068 277.675L393.09 264.828C395.922 252.793 397.57 248.781 399.684 248.781C400.169 248.781 402.73 247.293 405.373 245.474C408.431 243.371 412.755 241.586 417.26 240.568L424.341 238.969L435.198 245.686C441.17 249.381 446.654 252.746 447.386 253.164C448.309 253.692 452.285 250.365 460.361 242.309C466.766 235.919 472.006 230.374 472.006 229.985C472.006 229.598 468.921 224.262 465.151 218.131C461.381 212 458.296 206.012 458.296 204.825C458.296 201.091 462.114 190.756 465.938 184.137L469.617 177.771L483.542 174.39L497.467 171.009V154.103V137.199L493.795 136.225C491.775 135.689 485.591 134.189 480.054 132.891C474.516 131.593 469.863 130.361 469.715 130.155C469.568 129.947 468.103 128.014 466.461 125.86C464.819 123.705 462.908 120.859 462.212 119.535C460.335 115.961 457.231 102.809 457.96 101.516C458.308 100.898 461.68 95.4015 465.454 89.3005L472.316 78.2072L460.67 66.5282C454.265 60.1049 448.639 54.8492 448.167 54.8492C447.696 54.8492 442.339 57.9345 436.263 61.7054C430.186 65.4763 424.486 68.5615 423.595 68.5615C419.935 68.5615 406.527 63.3166 401.531 59.9306L396.177 56.3017L393.636 45.5355C392.239 39.6147 390.784 33.5588 390.403 32.0769L389.71 29.3834H372.769H355.827L352.634 43.1153ZM356.054 87.1927C313.151 98.0862 291.034 144.544 310.082 183.759C318.8 201.706 336.987 216.239 356.453 220.812C364.938 222.805 381.502 222.771 389.685 220.743C413.607 214.816 431.889 197.728 439.852 173.853C441.808 167.985 442.132 165.091 442.096 153.774C442.059 142.07 441.75 139.638 439.397 132.587C432.499 111.909 414.881 94.9715 393.175 88.1477C383.138 84.9929 366.414 84.5619 356.054 87.1927ZM361.043 110.19C347.934 113.795 337.365 122.575 331.257 134.935C327.891 141.746 327.576 143.114 327.269 152.216C326.998 160.298 327.308 163.156 328.969 167.897C333.322 180.323 341.089 188.832 353.503 194.777C360.035 197.904 361.876 198.33 370.342 198.67C377.952 198.976 381.176 198.648 386.511 197.023C420.082 186.796 430.276 145.518 405.11 121.713C393.461 110.693 375.908 106.103 361.043 110.19ZM616.937 140.062C617.514 141.139 618.479 142.021 619.082 142.021C619.685 142.021 619.381 141.139 618.406 140.062C617.432 138.984 616.466 138.103 616.262 138.103C616.057 138.103 616.36 138.984 616.937 140.062ZM117.512 142.429C117.512 142.653 125.63 176.481 135.552 217.602C145.474 258.723 157.848 310.438 163.051 332.524C168.252 354.611 172.804 372.982 173.164 373.348C174.088 374.286 524.646 372.367 534.189 371.371C543.145 370.437 546.415 368.991 551.53 363.702C555.751 359.339 555.882 358.892 567.493 309.018C571.632 291.24 582.247 246.962 591.082 210.621C599.916 174.28 607.145 144.198 607.145 143.773C607.145 143.348 589.107 143 567.062 143H526.979L526.668 164.793C526.243 194.444 527.584 192.415 504.821 197.848L487.756 201.92L492.772 209.924C503.354 226.812 505.301 230.267 505.301 232.159C505.301 237.399 500.776 243.081 480.562 263.219C460.693 283.012 455.712 286.98 450.728 286.98C449.763 286.98 442.588 283.039 434.784 278.224L420.594 269.467L416.48 286.304C414.217 295.564 412.343 303.173 412.318 303.212C412.292 303.252 410.314 304.26 407.923 305.455C403.667 307.582 402.92 307.621 372.424 307.343C343.559 307.079 340.987 306.915 337.357 305.1L333.44 303.141L329.392 286.685C327.165 277.635 325.127 270.013 324.862 269.748C324.598 269.484 318.267 273.083 310.794 277.747C303.322 282.411 296.293 286.231 295.177 286.235C289.479 286.263 284.235 282.08 262.802 260.41C235.285 232.59 236.308 235.779 248.582 216.053L257.406 201.872L241.563 198.16C224.2 194.092 222.236 193.006 220.421 186.466C219.824 184.318 219.364 173.835 219.361 162.344L219.355 142.021H168.434C140.427 142.021 117.512 142.204 117.512 142.429ZM523.417 508.732C500.308 516.073 487.183 538.991 493.092 561.683C495.236 569.916 498.92 576.118 505.255 582.162C511.541 588.159 516.512 590.964 524.573 593.064C544.576 598.275 565.053 588.538 574.563 569.294C577.692 562.96 578.204 560.914 578.569 553.295C578.907 546.199 578.586 543.321 576.856 537.957C570.814 519.228 554.327 507.252 534.821 507.423C530.703 507.459 525.572 508.048 523.417 508.732ZM173.82 509.659C166.151 512.199 160.033 516.043 154.657 521.699C130.019 547.621 144.566 589.281 180.181 594.794C203.069 598.338 225.854 581.209 229.064 558.046C231.689 539.089 222.073 521.011 204.829 512.487C198.029 509.125 196.788 508.846 187.618 508.613C181.381 508.454 176.292 508.84 173.82 509.659Z" fill="black"/>
</g>
<defs>
<clipPath id="clip0_108_531">
<rect width="633.585" height="619.015" fill="white"/>
</clipPath>
</defs>
</svg>
