<svg width="634" height="609" viewBox="0 0 634 609" fill="none" xmlns="http://www.w3.org/2000/svg">
<g clip-path="url(#clip0_110_568)">
<path fill-rule="evenodd" clip-rule="evenodd" d="M8.95345 2.79007C-1.52372 8.3479 -1.48063 23.0309 9.02885 28.3835C12.5268 30.1647 14.8878 30.3084 40.6905 30.3084C66.4021 30.3084 68.6113 30.4414 69.0696 32.0193C70.5189 37.0081 139.658 323.632 145.025 346.904C146.679 354.076 147.815 360.295 147.55 360.724C147.285 361.153 145.41 361.809 143.384 362.182C137.294 363.303 126.926 368.078 120.392 372.771C103.192 385.122 95.1181 400.007 95.17 419.264C95.1984 430.104 97.3762 437.874 102.989 447.175C107.345 454.392 117.696 464.182 125.667 468.626C133.996 473.268 148.654 478.064 154.512 478.064H159.241L152.899 481.727C143.84 486.958 131.641 499.403 127.26 507.881C121.251 519.509 119.183 527.814 119.228 540.143C119.298 559.685 125.142 573.585 139.175 587.593C148.781 597.181 157.134 601.886 170.582 605.281C193.322 611.021 219.315 603.179 235.331 585.745C265.357 553.06 256.242 500.61 217.063 480.613L212.167 478.113L359.546 478.11L506.926 478.107L501.54 481.186C493.06 486.034 480.175 499.65 475.814 508.37C458.674 542.645 471.984 583.072 505.781 599.389C516.759 604.688 525.789 606.482 538.611 605.911C556.657 605.108 570.453 599.003 583.332 586.126C613.504 555.957 606.95 503.968 570.199 481.954L563.723 478.074L576.747 478.068C586.225 478.065 590.522 477.676 592.528 476.64C599.643 472.967 600.532 458.968 593.994 453.551C592.551 452.356 560.739 452.087 370.902 451.668L149.494 451.179L142.875 448.049C119.474 436.983 114.093 413.644 131.25 397.622C137.142 392.12 142.255 389.469 149.644 388.081C153.546 387.348 209.176 386.727 324.293 386.13C488.445 385.279 538.081 384.397 547.921 382.157C554.468 380.666 566.579 372.24 571.774 365.561C577.188 358.6 578.603 354.401 585.257 325.532C591.216 299.68 610.921 217.803 624.395 162.909C628.996 144.163 632.761 126.741 632.761 124.193C632.761 119.059 630.29 114.529 625.59 111.053C622.875 109.043 621.88 109.003 568.262 108.74L513.697 108.472L509.96 100.919C488.298 57.1307 446.572 25.3382 396.513 14.4816C383.006 11.5526 349.31 11.2593 335.554 13.9517C322.132 16.5786 302.673 23.1453 291.469 28.8293C261.679 43.9395 233.825 71.6173 219.869 99.9735L216.136 107.558L163.822 107.306L111.509 107.052L102.956 71.8578C98.2517 52.5007 92.9441 30.5489 91.1608 23.0749C88.8488 13.3886 87.235 8.67736 85.5389 6.66442C80.7757 1.01371 80.5329 0.979492 44.9904 0.979492C15.1189 0.979492 12.0783 1.132 8.95345 2.79007ZM342.409 36.6542C314.17 41.6441 289.182 54.1793 268.912 73.5246C248.347 93.1525 235.109 116.236 228.573 143.864C226.197 153.915 225.947 156.791 225.914 174.509C225.873 195.932 226.892 203.068 232.309 219.3C239.397 240.539 249.85 257.222 266.455 273.799C283.558 290.875 299.341 300.716 321.236 307.963C337.859 313.464 350.612 315.177 369.828 314.489C378.446 314.181 388.691 313.227 392.594 312.369C448.54 300.069 490.729 257.058 501.673 201.162C504.464 186.911 504.643 164.351 502.075 150.557C491.594 94.2494 450.004 50.9531 393.948 37.9946C382.681 35.3902 353.814 34.6393 342.409 36.6542ZM280.717 102.238C275.964 104.712 274.416 106.597 272.871 111.79C271.199 117.411 270.988 130.401 272.464 136.87C273.015 139.29 274.528 142.882 275.826 144.853C277.123 146.823 291.163 159.23 307.026 172.422C322.888 185.613 336.238 196.979 336.69 197.678C337.143 198.378 337.513 216.987 337.513 239.033C337.513 278.512 337.546 279.182 339.696 283.536C344.09 292.439 351.738 293.836 364.932 288.147C376.31 283.242 386.973 277.798 390.745 274.967C397.434 269.947 397.692 268.344 397.716 231.667L397.738 198.883L402.879 193.922C405.706 191.193 418.596 180.157 431.522 169.397C444.449 158.637 456.213 148.567 457.666 147.018C462.394 141.977 463.348 138.126 463.348 124.096C463.348 108.663 462.227 105.339 456.078 102.55C452.293 100.835 447.721 100.74 367.87 100.725C293.385 100.712 283.314 100.887 280.717 102.238ZM294.915 127.92C294.915 131.649 295.131 131.858 322.176 154.267C351.543 178.6 355.705 182.596 358.922 189.543C360.914 193.845 361.031 195.739 361.335 228.966L361.656 263.869L367.945 260.773L374.235 257.677L374.278 226.358C374.324 193.078 374.533 191.311 379.272 184.162C380.541 182.248 394.689 169.709 410.713 156.3L439.846 131.918V128.039V124.161H367.38H294.915V127.92ZM616.114 128.441C616.114 128.643 616.885 129.414 617.827 130.152C619.381 131.367 619.415 131.333 618.198 129.782C616.918 128.154 616.114 127.637 616.114 128.441ZM117.72 132.226C117.748 132.899 122.073 151.046 127.332 172.554L136.894 211.659L171.457 211.916C201.844 212.142 205.952 211.996 205.457 210.707C205.147 209.9 204.163 204.286 203.27 198.229C201.09 183.439 201.809 156.182 204.734 142.736C205.846 137.628 206.761 132.899 206.768 132.226C206.778 131.266 197.223 131.004 162.224 131.004C127.205 131.004 117.678 131.266 117.72 132.226ZM522.503 133.693C527.85 150.94 529.176 181.058 525.5 201.796C524.73 206.145 524.091 210.254 524.08 210.926C524.067 211.879 531.119 212.148 556.134 212.146L588.205 212.144L597.423 174.263C602.492 153.428 606.84 135.392 607.085 134.182L607.529 131.982H564.75C524.46 131.982 522.003 132.082 522.503 133.693ZM143.129 236.574C143.129 237.104 147.269 254.812 152.33 275.924C157.391 297.037 164.103 325.263 167.246 338.649L172.961 362.988L333.578 362.291C507.042 361.54 539.543 360.929 544.586 358.325C549.246 355.919 555.24 349.26 556.352 345.251C556.898 343.289 560.22 329.315 563.737 314.197C567.253 299.08 572.911 275.213 576.312 261.16L582.492 235.611H549.516H516.539L510.023 248.565C501.528 265.451 492.778 277.563 479.49 290.831C466.201 304.097 454.002 312.881 437.398 321.14C423.097 328.254 411.864 332.216 396.758 335.475C387.87 337.393 383.557 337.699 364.932 337.733C345.983 337.769 342.105 337.5 332.736 335.498C291.951 326.783 257.944 304.993 233.264 271.762C226.943 263.252 217.939 247.737 214.981 240.259L213.146 235.618L178.137 235.615C155.792 235.612 143.129 235.959 143.129 236.574ZM524.166 497.209C521.259 497.989 516.743 499.788 514.129 501.209C508.427 504.307 499.646 513.248 496.761 518.893C481.76 548.251 502.562 582.67 535.309 582.67C554.58 582.67 571.568 570.251 577.08 552.134C580.087 542.252 579.346 530.567 575.146 521.606C571.561 513.958 563.279 504.882 556.549 501.225C546.732 495.891 534.653 494.393 524.166 497.209ZM173.288 498.526C161.696 502.226 152.122 510.453 146.83 521.262C135.289 544.834 148.027 573.922 173.303 581.716C194.17 588.15 216.142 578.315 225.769 558.229C228.654 552.209 228.814 551.257 228.814 540.143C228.814 529.046 228.651 528.068 225.781 522.057C216.284 502.16 193.665 492.021 173.288 498.526Z" fill="black"/>
</g>
<defs>
<clipPath id="clip0_110_568">
<rect width="633.585" height="608.087" fill="white" transform="translate(0.155273 0.00195312)"/>
</clipPath>
</defs>
</svg>
