<svg width="512" height="512" viewBox="0 0 512 512" fill="none" xmlns="http://www.w3.org/2000/svg">
<g clip-path="url(#clip0_27_145)">
<path fill-rule="evenodd" clip-rule="evenodd" d="M78.4999 18.39C74.3499 20.28 70.1489 24.993 68.9799 29.069C68.4409 30.949 67.9999 40.449 67.9999 50.18V67.873L43.2499 68.187C20.1079 68.48 18.2399 68.64 14.4999 70.662C9.18391 73.536 4.56891 78.491 2.07891 84C0.0929121 88.392 0.042912 90.2511 0.021912 161.572C-0.00308802 243.09 -0.213088 240.448 6.87491 247.751C14.0629 255.158 15.4409 255.463 43.2499 255.799L67.9999 256.098V341.465V426.833L56.2499 427.166C45.7449 427.465 44.1429 427.754 41.1329 429.901C34.8659 434.371 34.0469 437.919 34.0219 460.685C33.9989 482.138 34.4229 484.677 38.8139 489.373C44.1519 495.083 43.2169 495 102.5 495C162.206 495 161.221 495.091 166.27 489.091C170.642 483.895 171.189 480.215 170.831 458.424C170.504 438.614 170.465 438.294 167.839 434.33C163.88 428.352 160.147 427 147.599 427H137V341.5V256H256H375V341.5V427H364.401C351.853 427 348.12 428.352 344.161 434.33C341.535 438.294 341.496 438.614 341.169 458.424C340.811 480.215 341.358 483.895 345.73 489.091C350.779 495.091 349.794 495 409.5 495C468.783 495 467.848 495.083 473.186 489.373C477.577 484.677 478.001 482.138 477.978 460.685C477.953 437.919 477.134 434.371 470.867 429.901C467.857 427.754 466.255 427.465 455.75 427.166L444 426.833V341.465V256.098L468.75 255.799C490.852 255.532 493.918 255.293 497.403 253.563C502.513 251.028 507.203 246.259 509.362 241.403C510.316 239.257 511.525 236.719 512.048 235.764C513.358 233.374 513.31 85.974 512 88C511.176 89.275 511.028 89.232 511.015 87.71C510.989 84.586 507.283 78.488 503.132 74.738C496.619 68.854 491.951 68 466.318 68H444L443.994 50.25C443.991 40.487 443.532 30.857 442.975 28.848C441.718 24.324 435.3 18.334 430.81 17.495C428.989 17.155 418.239 17.017 406.919 17.188L386.338 17.5L382.668 20.302C376.02 25.377 375.539 27.203 375.174 48.75L374.847 68H256H137.153L136.826 48.75C136.461 27.203 135.98 25.376 129.332 20.302L125.661 17.5L103.581 17.261C86.6269 17.078 80.8029 17.34 78.4999 18.39ZM85.6669 34.667C85.2999 35.033 84.9999 42.683 84.9999 51.667V68H102H119V51V34H102.667C93.6829 34 86.0329 34.3 85.6669 34.667ZM393 50.976V68H410.024H427.048L426.774 51.25L426.5 34.5L409.75 34.226L393 33.952V50.976ZM22.2419 86.494C20.4309 87.281 18.5439 89.069 17.9919 90.52C17.4089 92.053 16.9999 106.611 16.9999 125.81V158.49L52.9999 122.5C72.7999 102.706 88.9999 86.171 88.9999 85.755C88.9999 85.34 74.7129 85.018 57.2499 85.039C32.1349 85.07 24.8189 85.374 22.2419 86.494ZM65.7739 133.736L16.9999 182.472V207.68C16.9999 232.886 16.9999 232.889 19.4129 235.694C21.6459 238.289 22.4529 238.523 30.1629 238.812L38.4999 239.125L115.498 162.062L192.495 85H153.521H114.548L65.7739 133.736ZM140.5 162L63.5049 239H94.0049H124.505L200.752 162.748C242.689 120.809 277 86.159 277 85.748C277 85.336 263.611 85 247.248 85H217.495L140.5 162ZM225.5 162L148.505 239H187.505H226.505L303.5 162L380.495 85H341.495H302.495L225.5 162ZM328.5 162L251.505 239H286.005H320.505L396.752 162.748C438.689 120.809 473 86.159 473 85.748C473 85.336 457.811 85 439.248 85H405.495L328.5 162ZM0.474912 162C0.474912 202.975 0.598912 219.738 0.749912 199.25C0.900912 178.762 0.900912 145.238 0.749912 124.75C0.598912 104.262 0.474912 121.025 0.474912 162ZM419.713 163.787C379.171 204.332 346 237.841 346 238.253C346 238.664 363.215 239 384.255 239H422.51L458.755 202.745L495 166.49L494.985 129.495C494.976 109.148 494.622 91.953 494.197 91.285C493.684 90.478 468.686 114.81 419.713 163.787ZM471.008 215.491L447.516 239L467.508 238.985C481.613 238.975 488.236 238.598 490 237.706C494.577 235.391 495.065 232.719 494.771 211.56L494.5 191.981L471.008 215.491ZM85.2439 341.25L85.4999 426.5L102.25 426.774L119 427.048V341.524V256H101.994H84.9889L85.2439 341.25ZM393 341.524V427.048L409.75 426.774L426.5 426.5L426.756 341.25L427.011 256H410.006H393V341.524ZM50.9999 461V478H102H153V461V444H102H50.9999V461ZM359 461V478H410H461V461V444H410H359V461Z" fill="black"/>
</g>
<defs>
<clipPath id="clip0_27_145">
<rect width="512" height="512" fill="white"/>
</clipPath>
</defs>
</svg>
