<svg width="644" height="635" viewBox="0 0 644 635" fill="none" xmlns="http://www.w3.org/2000/svg">
<path fill-rule="evenodd" clip-rule="evenodd" d="M36.519 2.75483C21.4058 6.81515 9.57238 18.3405 4.24829 34.1848L1.80463 41.4595V199.934C1.80463 374.257 1.44482 363.512 7.67903 375.2C11.4244 382.22 19.7463 390.535 26.7722 394.277C37.9534 400.231 36.696 400.147 113.703 400.147H183.828L187.099 396.878C189.961 394.019 190.37 393 190.37 388.723C190.37 384.682 189.884 383.292 187.564 380.697L184.756 377.557L113.725 377.077C43.1938 376.6 42.6656 376.582 38.8443 374.518C33.7299 371.755 29.29 366.992 26.8944 361.697C24.9511 357.404 24.9366 356.176 24.9155 201.099C24.8914 26.4938 24.3603 39.587 31.7856 31.9412C33.9031 29.7621 37.4397 27.16 39.6447 26.1593C43.5488 24.3887 50.9115 24.3406 318.325 24.3406C592.601 24.3406 593.002 24.3435 597.325 26.2987C603.139 28.9277 606.731 32.4603 609.464 38.2365L611.737 43.0427L611.747 200.739L611.756 358.435L609.265 363.432C607.894 366.18 605.212 369.714 603.306 371.284C596.878 376.578 593.708 377.077 566.517 377.077C537.945 377.077 538.655 376.851 537.88 386.179C537.354 392.52 538.076 395.739 540.587 398.248C542.382 400.041 543.878 400.147 567.454 400.147C581.908 400.147 594.567 399.701 597.519 399.087C613.686 395.73 627.559 383.1 633.154 366.647L635.327 360.255L635.61 205.494C635.816 93.0228 635.592 48.568 634.79 42.811C632.177 24.035 619.212 8.6396 601.382 3.13645C595.272 1.25144 591.887 1.22933 318.465 1.29181C79.3185 1.3466 41.0224 1.54462 36.519 2.75483ZM463.567 117.78C462.508 119.498 455.262 132.022 447.467 145.609C436.814 164.177 433.027 170.028 432.225 169.16C431.637 168.525 424.743 157.407 416.904 144.454C409.065 131.502 402.011 120.147 401.227 119.222C400.444 118.296 398.945 117.539 397.895 117.539C395.604 117.539 380.087 127.885 378.813 130.264C377.658 132.421 377.029 131.275 399.529 168.005L418.372 198.765L418.377 227.917L418.38 257.069L421.193 259.878C423.839 262.523 424.465 262.688 431.823 262.688C439.966 262.688 444.561 261.239 445.683 258.319C446.011 257.464 446.28 244.453 446.28 229.408V202.052L466.484 166.93C477.596 147.613 486.687 131.059 486.687 130.144C486.687 129.229 486.147 127.794 485.485 126.955C483.366 124.265 469.148 114.656 467.288 114.656C466.3 114.656 464.628 116.059 463.567 117.78ZM158.961 116.6C155.087 117.807 150.356 123.181 149.059 127.847C148.402 130.21 148.049 153.465 148.046 194.439C148.042 264.82 147.801 262.272 154.774 265.866C157.834 267.443 160.462 267.564 183.636 267.2C211.726 266.759 217.044 265.929 224.363 260.849C236.105 252.697 240.431 243.53 241.9 223.693C242.974 209.172 239.812 198.543 231.663 189.295L227.759 184.863L231.69 179.378C244.536 161.454 240.934 135.088 224.005 123.128C215.744 117.291 211.395 116.501 185.079 116.051C171.47 115.82 160.745 116.045 158.961 116.6ZM267.111 119.384L263.968 122.19L264.165 170.215C264.372 221.011 265.207 235.407 268.459 244.254C273.434 257.79 283.055 265.03 299.964 267.96C313.29 270.27 330.561 268.167 339.043 263.199C344.267 260.142 350.762 252.977 353.1 247.695C357.68 237.351 357.97 233.568 358.466 177.842C358.723 148.888 358.655 124.091 358.316 122.741C357.882 121.013 356.404 119.712 353.34 118.358C347.719 115.873 342.152 116.656 338.338 120.466L335.643 123.159L335.607 166.249C335.566 215.62 334.76 232.074 332.123 237.374C329.182 243.285 326.28 244.735 316.445 245.205C303.637 245.817 297.692 244.833 293.854 241.466C288.308 236.601 288.168 235.136 287.585 175.856L287.058 122.185L283.916 119.382C281.257 117.009 279.966 116.578 275.513 116.578C271.059 116.578 269.771 117.009 267.111 119.384ZM171.129 156.47V174.253L180.028 174.223C200.586 174.155 210.165 171.211 214.116 163.745C217.951 156.5 216.41 146.189 210.889 142.151C207.882 139.953 198.368 138.812 182.433 138.739L171.129 138.687V156.47ZM171.136 215.209C171.139 224.14 171.424 234.423 171.768 238.06L172.392 244.672L189.906 244.234C204.943 243.857 207.868 243.533 210.58 241.947C216.022 238.764 217.322 236.064 218.442 225.617C219.617 214.667 218.749 209.756 214.815 205.085C211.343 200.961 207.486 200.156 188.205 199.527L171.129 198.97L171.136 215.209ZM390.844 255.365C384.695 258.148 384.708 258.07 384.708 291.332V321.472L387.45 324.211C392.053 328.81 400.988 329.215 406.27 325.064L408.785 323.087L408.532 290.829L408.279 258.569L405.704 256.649C402.434 254.21 394.845 253.554 390.844 255.365ZM488.13 274.119C486.543 275.115 476.261 284.977 465.281 296.036C446.186 315.267 445.318 316.305 445.318 319.875C445.318 326.407 451.081 332.654 457.958 333.575L461.789 334.089L483.859 312.115C505.722 290.344 505.929 290.101 505.929 286.06C505.929 282.832 505.279 281.241 502.817 278.439C499.897 275.115 495.04 272.296 492.25 272.304C491.572 272.306 489.718 273.122 488.13 274.119ZM312.554 295.489C307.183 297.629 302.932 303.596 302.932 308.997C302.932 311.822 305.199 314.411 324.98 334.175L347.028 356.204L350.911 355.683C353.046 355.397 356.167 354.185 357.846 352.992C361.487 350.401 364.804 343.517 363.984 340.252C363.667 338.989 353.567 328.158 341.54 316.183C318.676 293.416 318.346 293.182 312.554 295.489ZM398.658 362.755C388.56 364.047 380.871 369.585 376.32 378.844C373.913 383.74 373.652 385.251 373.716 393.899C373.782 402.644 374.241 404.986 378.8 419.852C388.911 452.827 419.496 542.128 435.425 585.187C444.514 609.759 450.611 623.21 454.536 627.352C460.408 633.548 470.148 635.386 477.714 631.727C486.764 627.35 494.219 614.684 505.959 583.745C509.269 575.022 512.257 567.565 512.6 567.173C512.941 566.781 520.781 574.729 530.019 584.834C559.2 616.752 569.096 624.709 580.949 625.783C587.879 626.41 593.232 624.716 600.867 619.478C615.191 609.65 626.938 597.239 632.581 585.97C635.689 579.763 636.001 578.446 635.653 572.99C635.345 568.158 634.658 566.036 632.286 562.596C630.647 560.218 617.582 546.094 603.252 531.209L577.198 504.146L595.68 496.239C630.723 481.245 638.034 477.116 641.15 470.555C645.605 461.176 640.365 448.152 630.033 442.921C625.266 440.507 509.018 396.766 460.712 379.21C417.291 363.429 409.512 361.366 398.658 362.755ZM219.261 376.384C213.167 379.464 210.769 388.17 214.383 394.092C219.864 403.075 233.051 401.652 236.52 391.704C237.763 388.139 237.763 387.162 236.52 383.597C234.062 376.547 225.782 373.087 219.261 376.384ZM266.425 377.987C261.744 382.663 261.986 393.786 266.858 397.984C269.343 400.126 269.652 400.147 299.075 400.147C315.663 400.147 329.852 399.74 331.205 399.227C334.585 397.943 336.605 393.478 336.605 387.291C336.605 383.034 336.129 381.467 334.114 379.073L331.623 376.115H299.96C269.867 376.115 268.205 376.208 266.425 377.987ZM397.751 387.865C395.331 391.316 395.97 396.251 400.984 412.845C417.226 466.597 467.084 607.776 469.825 607.776C471.318 607.776 481.262 584.282 491.576 556.384C497.753 539.675 503.383 534.849 513.521 537.577C518.641 538.955 523.52 543.546 547.874 569.899C568.656 592.388 579.905 602.97 583.03 602.97C586.598 602.97 604.259 587.343 610.024 579.085L612.941 574.906L608.267 569.953C605.697 567.229 591.598 552.889 576.935 538.086C550.496 511.391 547.298 507.449 547.298 501.551C547.298 497.76 550.637 492.197 554.43 489.672C556.309 488.42 568.568 482.733 581.674 477.035C594.78 471.336 607.884 465.588 610.794 464.264L616.086 461.855L613.199 460.714C584.735 449.462 432.759 393.369 418.128 388.715C406.594 385.046 399.921 384.768 397.751 387.865ZM310.487 450.775C298.979 462.23 289.065 472.803 288.457 474.269C285.526 481.34 295.31 492.062 303.485 490.738C304.584 490.56 315.359 480.512 327.431 468.408L349.38 446.402L348.825 442.265C348.382 438.971 347.387 437.293 343.937 434.036C340.235 430.541 339.006 429.945 335.508 429.945C331.459 429.945 331.177 430.181 310.487 450.775Z" fill="black"/>
</svg>
