<svg width="100%" height="100%" viewBox="0 0 850 850" fill="none" xmlns="http://www.w3.org/2000/svg">
<g clip-path="url(#clip0_121_252)">
<path d="M776.953 850H170.664C130.156 850 97.6172 817.461 97.6172 776.953V170.664C97.6172 130.156 130.156 97.6172 170.664 97.6172H776.953C817.461 97.6172 850 130.156 850 170.664V776.953C850 817.461 817.461 850 776.953 850Z" fill="#00B170"/>
<path d="M410.391 598.984L348.633 594.336L334.023 534.57L282.891 500.703L300.156 441.602L273.594 386.484L317.422 343.984L322.07 282.227L381.836 267.617L415.703 216.484L474.805 233.75L529.922 206.523L572.422 251.016L634.18 255.664L648.789 315.43L699.922 349.297L682.656 408.398L709.883 463.516L665.391 506.016L660.742 567.773L600.977 582.383L567.109 633.516L508.008 616.25L452.891 643.477L410.391 598.984Z" fill="#9B5C8F"/>
<path d="M527.266 221.133L560.469 256.328L566.445 262.969L575.742 263.633L624.219 266.953L635.508 314.102L637.5 322.734L644.805 328.047L685.312 355.273L672.031 401.758L669.375 410.391L673.359 418.359L694.609 462.188L659.414 495.391L652.773 501.367L652.109 510.664L648.789 559.141L601.641 570.43L593.008 572.422L587.695 579.727L560.469 620.234L513.984 606.953L505.352 604.297L497.383 608.281L453.555 629.531L420.352 594.336L414.375 587.695L405.078 587.031L356.602 583.711L345.312 536.563L343.32 527.93L336.016 522.617L295.508 495.391L308.789 448.906L311.445 440.273L307.461 432.305L286.211 388.477L321.406 355.273L328.047 349.297L328.711 340L332.031 291.523L379.18 280.234L387.813 278.242L393.125 270.937L420.352 230.43L466.836 243.711L475.469 246.367L483.438 242.383L527.266 221.133ZM532.578 192.578L473.477 221.797L410.391 203.203L373.867 257.656L310.117 272.93L306.133 338.672L258.984 383.828L288.203 442.93L269.609 506.016L324.062 542.539L339.336 606.289L404.414 610.938L449.57 658.086L508.672 628.867L571.758 647.461L608.281 593.008L672.031 577.734L676.68 512.656L723.828 467.5L694.609 408.398L713.203 345.312L658.75 308.789L643.477 245.039L577.734 239.727L532.578 192.578Z" fill="#F2F2F2"/>
<path d="M378.516 354.609C378.516 341.328 383.164 330.039 391.797 320.742C400.43 312.109 413.047 307.461 428.984 307.461C445.586 307.461 458.203 312.109 466.836 320.742C475.469 329.375 480.117 340.664 480.117 354.609V366.563C480.117 379.844 475.469 391.133 466.836 400.43C458.203 409.062 445.586 413.711 429.648 413.711C413.047 413.711 401.094 409.062 391.797 400.43C383.164 391.797 378.516 380.508 378.516 366.563V354.609ZM444.258 521.953L419.688 509.336L531.25 331.367L555.82 343.984L444.258 521.953ZM412.383 367.227C412.383 372.539 413.711 376.523 417.031 380.508C419.687 383.828 424.336 385.82 429.648 385.82C434.961 385.82 438.945 383.828 442.266 380.508C444.922 377.188 446.25 372.539 446.25 367.227V355.273C446.25 349.961 444.922 345.313 441.602 341.992C438.945 338.672 434.297 336.68 428.984 336.68C423.672 336.68 419.688 338.672 416.367 341.992C413.711 345.313 411.719 349.961 411.719 355.273V367.227H412.383ZM502.695 483.438C502.695 470.156 507.344 458.867 515.977 449.57C524.609 440.937 537.227 436.289 553.828 436.289C570.43 436.289 583.047 440.937 591.68 449.57C600.312 458.203 604.961 469.492 604.961 483.438V495.391C604.961 509.336 600.312 520.625 591.68 529.258C583.047 537.891 570.43 542.539 554.492 542.539C537.891 542.539 525.273 537.891 516.641 529.258C508.008 520.625 503.359 509.336 503.359 495.391V483.438H502.695ZM536.563 495.391C536.563 500.703 538.555 504.688 541.875 508.672C545.195 512.656 549.18 513.984 553.828 513.984C560.469 513.984 564.453 512.656 567.109 509.336C569.102 506.016 570.43 501.367 570.43 495.391V483.438C570.43 478.125 569.102 474.141 565.781 470.156C563.125 466.836 558.477 464.844 553.164 464.844C547.852 464.844 543.867 466.836 540.547 470.156C537.891 473.477 535.898 478.125 535.898 483.438V495.391H536.563Z" fill="#F2F2F2"/>
<path opacity="0.24" d="M672.031 577.07L608.281 592.344L571.758 646.797L509.336 628.203L450.234 657.422L405.078 610.273L339.336 605.625L324.062 541.875L269.609 505.352L288.203 442.93L258.984 383.828L306.133 338.672L310.781 272.93L374.531 257.656L411.055 203.203L473.477 221.797L532.578 192.578L577.734 239.727L643.477 244.375L658.75 308.125L713.203 344.648L694.609 407.07L723.828 466.172L676.68 511.328L672.031 577.07Z" fill="url(#paint0_radial_121_252)"/>
<path d="M288.203 456.211L272.93 508.008L269.609 506.016L285.547 451.562L288.203 456.211ZM306.133 351.953L310.781 286.875L374.531 271.602L411.055 217.148L474.141 235.742L533.242 206.523L578.398 253.672L643.477 258.32L658.75 322.07L709.883 356.602L713.203 345.312L658.75 308.789L643.477 245.039L577.734 239.727L532.578 192.578L473.477 221.797L410.391 203.203L373.867 257.656L310.117 272.93L306.133 338.672L258.984 383.828L263.633 393.125L306.133 351.953ZM697.266 412.383L694.609 421.016L719.18 470.82L723.828 466.836L697.266 412.383Z" fill="white"/>
<path d="M583.047 683.321L721.172 551.172C703.242 539.883 674.687 535.899 652.109 553.164C622.891 575.078 549.844 633.516 549.844 633.516L583.047 683.321Z" fill="#F2F2F2"/>
<path opacity="0.26" d="M583.047 683.321L721.172 551.172C703.242 539.883 674.687 535.899 652.109 553.164C622.891 575.078 549.844 633.516 549.844 633.516L583.047 683.321Z" fill="url(#paint1_linear_121_252)"/>
<path opacity="0.26" d="M652.109 564.453C672.031 549.844 695.938 550.508 713.203 558.477L720.508 551.172C702.578 539.883 674.023 535.899 651.445 553.164C622.227 575.078 549.18 633.516 549.18 633.516L554.492 640.821C571.758 627.539 627.539 583.047 652.109 564.453Z" fill="white"/>
<path d="M347.969 783.594L393.125 711.211L557.148 695.273C573.75 693.945 588.359 684.648 596.992 670.703L701.914 507.344C674.687 492.734 652.773 496.719 635.508 516.641C616.914 540.547 561.133 610.937 561.133 610.937H362.578C340.664 610.937 319.414 620.898 305.469 637.5L257.656 693.281C276.25 732.461 306.797 762.344 347.969 783.594Z" fill="#F2F2F2"/>
<path d="M636.172 517.305C616.914 540.547 561.133 610.937 561.133 610.937H362.578C353.281 610.937 343.984 612.93 334.688 616.25C336.68 619.57 338.008 622.227 340 625.547C347.305 623.555 354.609 622.227 362.578 622.227H561.133C561.133 622.227 616.914 551.836 636.172 528.594C651.445 510 672.031 505.352 696.602 516.641L701.914 508.008C675.352 493.398 652.773 497.383 636.172 517.305Z" fill="white"/>
<path opacity="0.26" d="M636.172 517.305C616.914 540.547 561.133 610.937 561.133 610.937H369.883L425 708.555L557.812 695.938C574.414 694.609 589.023 685.312 597.656 671.367L702.578 508.008C675.352 493.398 652.773 497.383 636.172 517.305Z" fill="url(#paint2_radial_121_252)"/>
<path d="M257.656 693.281L330.039 589.024C342.656 571.094 363.906 561.797 385.156 564.453C442.93 571.758 472.148 576.406 523.945 572.422C518.633 604.961 499.375 626.875 462.852 628.203C434.961 629.531 378.516 630.195 378.516 630.195L296.172 747.07C279.57 730.469 266.953 712.539 257.656 693.281Z" fill="#F2F2F2"/>
<path d="M329.375 600.313C341.992 582.383 363.242 573.086 384.492 575.742C440.937 582.383 470.156 587.695 520.625 583.711C521.953 579.727 522.617 576.406 523.281 572.422C471.484 575.742 442.266 571.094 384.492 564.453C363.242 561.797 341.992 571.094 329.375 589.024L256.992 693.281C258.32 695.274 258.984 697.93 260.312 699.922L329.375 600.313Z" fill="white"/>
<g opacity="0.2">
<path d="M776.953 850H170.664C130.156 850 97.6172 817.461 97.6172 776.953V170.664C97.6172 130.156 130.156 97.6172 170.664 97.6172H776.953C817.461 97.6172 850 130.156 850 170.664V776.953C850 817.461 817.461 850 776.953 850Z" fill="url(#paint3_radial_121_252)"/>
</g>
<path opacity="0.2" d="M778.281 836.719H169.336C129.492 836.719 97.6172 804.844 97.6172 765V776.953C97.6172 817.461 130.156 850 170.664 850H776.953C817.461 850 850 817.461 850 776.953V765C850 804.844 818.125 836.719 778.281 836.719Z" fill="#004725"/>
<g opacity="0.4">
<path d="M838.711 137.461C824.766 118.867 802.852 106.914 778.281 106.914H169.336C144.766 106.914 122.852 118.867 108.906 137.461C120.859 115.547 144.102 100.273 170.664 100.273H776.953C803.516 100.938 826.758 115.547 838.711 137.461Z" fill="#01BFD7"/>
<path d="M776.953 97.6172H170.664C130.156 97.6172 97.6172 130.156 97.6172 170.664V182.617C97.6172 142.773 129.492 110.898 169.336 110.898H778.281C818.125 110.898 850 142.773 850 182.617V170.664C850 130.156 817.461 97.6172 776.953 97.6172Z" fill="white"/>
</g>
<path d="M37.1875 0H365.898C386.484 0 403.75 16.6016 403.75 37.8516V163.359C403.75 183.945 387.148 201.211 365.898 201.211H248.359L264.297 241.055L193.242 201.211H37.8516C17.2656 201.211 0 184.609 0 163.359V37.8516C0 17.2656 16.6016 0 37.1875 0Z" fill="#9B5C8F"/>
<path d="M19.9219 33.8672C21.9141 30.5469 25.8984 29.2188 30.5469 28.5547C39.1797 27.8906 43.8281 31.875 45.1562 40.5078C50.4688 75.0391 55.7812 104.258 61.7578 128.164L97.6172 59.7656C100.937 53.7891 104.922 50.4687 110.234 49.8047C117.539 49.1406 122.187 53.7891 123.516 63.75C127.5 85.6641 132.812 104.258 139.453 120.195C143.437 78.3594 150.742 47.8125 161.367 29.2188C164.023 24.5703 167.344 22.5781 171.992 21.9141C175.977 21.9141 179.297 22.5781 182.617 25.2344C185.937 27.8906 187.266 30.5469 187.93 34.5312C187.93 37.1875 187.93 39.8438 186.602 42.5C179.961 54.4531 174.648 74.375 170.664 102.266C166.68 129.492 165.352 150.078 166.016 165.352C166.016 169.336 166.016 173.32 164.023 175.977C162.031 179.297 159.375 181.289 155.391 181.953C151.406 181.953 146.758 180.625 142.109 175.977C126.836 160.039 114.219 136.797 105.586 105.586L81.6797 153.398C71.7187 171.992 63.75 181.953 56.4453 181.953C51.7969 181.953 48.4766 178.633 45.1562 170.664C36.5234 148.75 27.8906 107.578 17.9297 45.1563C17.2656 41.1719 17.9297 37.1875 19.9219 33.8672ZM375.195 60.4297C369.219 49.8047 360.586 43.8281 348.633 41.1719C345.312 40.5078 342.656 39.8438 340 39.8438C324.062 39.8438 311.445 47.8125 301.484 64.4141C292.852 78.3594 288.867 94.2969 288.867 110.898C288.867 123.516 291.523 134.805 296.836 143.438C302.812 154.063 311.445 160.039 323.398 162.695C326.719 163.359 329.375 163.359 332.031 163.359C347.969 163.359 361.25 155.391 370.547 138.789C379.18 124.844 383.164 108.906 383.164 92.3047C383.164 79.6875 380.508 69.0625 375.195 60.4297ZM354.609 105.586C352.617 116.211 347.969 124.844 341.992 130.156C337.344 134.141 332.695 136.133 328.711 135.469C324.727 134.805 321.406 131.484 318.75 124.844C316.758 119.531 316.094 114.883 316.094 109.57C316.094 105.586 316.094 101.602 317.422 97.6172C318.75 90.9766 321.406 84.3359 326.055 77.6953C331.367 69.7266 337.344 66.4062 343.32 67.7344C347.305 68.3984 350.625 71.7188 353.281 78.3594C355.273 83.6719 355.937 88.3203 355.937 93.6328C355.273 97.6172 355.273 102.266 354.609 105.586ZM271.602 60.4297C265.625 49.8047 256.992 43.8281 245.039 41.1719C242.383 40.5078 239.062 39.8438 236.406 39.8438C220.469 39.8438 207.852 47.8125 197.891 64.4141C189.258 78.3594 185.273 94.2969 185.273 110.898C185.273 123.516 187.93 134.805 193.242 143.438C199.219 154.063 207.852 160.039 219.805 162.695C223.125 163.359 225.781 163.359 228.438 163.359C244.375 163.359 257.656 155.391 266.953 138.789C275.586 124.844 279.57 108.906 279.57 92.3047C279.57 79.6875 276.914 69.0625 271.602 60.4297ZM251.016 105.586C249.023 116.211 244.375 124.844 238.398 130.156C233.75 134.141 229.102 136.133 225.117 135.469C221.133 134.805 217.812 131.484 215.156 124.844C213.164 119.531 212.5 114.883 212.5 109.57C212.5 105.586 212.5 101.602 213.828 97.6172C215.156 90.9766 217.812 84.3359 222.461 77.6953C227.773 69.7266 233.75 66.4062 239.727 67.7344C243.711 68.3984 247.031 71.7188 249.687 78.3594C251.68 83.6719 252.344 88.3203 252.344 93.6328C251.68 97.6172 251.68 102.266 251.016 105.586Z" fill="white"/>
</g>
<defs>
<radialGradient id="paint0_radial_121_252" cx="0" cy="0" r="1" gradientUnits="userSpaceOnUse" gradientTransform="translate(524.588 610.9) rotate(-6.95587) scale(196.037 259.432)">
<stop/>
<stop offset="0.009" stop-opacity="0.9911"/>
<stop offset="1" stop-opacity="0"/>
</radialGradient>
<linearGradient id="paint1_linear_121_252" x1="588.227" y1="640.92" x2="705.414" y2="548.768" gradientUnits="userSpaceOnUse">
<stop/>
<stop offset="1" stop-opacity="0"/>
</linearGradient>
<radialGradient id="paint2_radial_121_252" cx="0" cy="0" r="1" gradientUnits="userSpaceOnUse" gradientTransform="translate(456.072 592.489) scale(96.9081 61.0955)">
<stop offset="0.459"/>
<stop offset="1" stop-opacity="0"/>
</radialGradient>
<radialGradient id="paint3_radial_121_252" cx="0" cy="0" r="1" gradientUnits="userSpaceOnUse" gradientTransform="translate(111.822 131.743) scale(1007.54)">
<stop stop-color="white"/>
<stop offset="0.057" stop-color="white" stop-opacity="0.9425"/>
<stop offset="1" stop-color="white" stop-opacity="0"/>
</radialGradient>
<clipPath id="clip0_121_252">
<rect width="850" height="850" fill="white"/>
</clipPath>
</defs>
</svg>
