<svg width="425" height="662" viewBox="0 0 425 662" fill="none" xmlns="http://www.w3.org/2000/svg">
<path fill-rule="evenodd" clip-rule="evenodd" d="M155.862 1.6842C125.762 5.26202 100.111 29.6411 88.1735 66.0137C79.669 91.9283 80.138 121.765 89.4701 148.417L92.6106 157.388L50.9519 192.187C28.0394 211.328 8.29759 228.068 7.08119 229.39C1.62672 235.318 1.90227 225.658 1.56444 422.613C1.2568 601.678 1.65786 632.943 4.37377 641.771C6.07428 647.298 13.0075 654.022 19.8086 656.741C25.4074 658.98 25.5028 658.984 87.6978 659.672C184.397 660.74 286.158 660.686 296.524 659.562C308.473 658.265 314.809 655.204 319.125 648.641C320.806 646.086 322.682 642.194 323.294 639.993C323.907 637.791 324.655 635.688 324.957 635.32C325.258 634.95 337.183 633.315 351.456 631.687C383.176 628.068 398.761 625.56 405.478 622.995C412.072 620.476 417.649 615.553 420.465 609.766C422.616 605.345 422.701 604.37 422.628 584.934C422.503 552.377 416.253 493.006 393.37 307.013C383.055 223.178 381.185 209.149 379.611 203.785C378.186 198.931 371.708 191.47 364.76 186.681C361.855 184.678 333.892 167.331 302.621 148.132L245.764 113.226L245.76 103.43C245.756 91.7173 243.849 78.8886 240.483 67.9403C226.905 23.7657 193.056 -2.7375 155.862 1.6842ZM151.868 26.0585C142.758 29.1392 135.771 33.7198 128.276 41.5267C120.28 49.8547 115.917 56.5171 111.991 66.3923C107.227 78.3742 105.945 85.1378 105.427 101.019C104.909 116.9 105.657 124.131 109.028 135.806L110.913 142.335L116.574 137.733C129.136 127.522 144.911 115.603 150.029 112.456C157.211 108.038 164.804 107.355 171.934 110.486L176.767 112.609L182.563 106.283C190.491 97.6322 196.639 94.589 206.13 94.6218C212.028 94.642 214.056 95.0986 218.3 97.3596L223.394 100.072L222.737 93.4821C220.625 72.2744 210.54 50.687 196.946 38.2745C193.952 35.5415 187.935 31.4945 183.573 29.2818C175.935 25.4063 175.274 25.2493 165.643 25.02C159.264 24.8687 154.276 25.2444 151.868 26.0585ZM199.635 121.69L195.277 126.145L197.63 127.711C202.232 130.775 256.872 172.875 272.187 185.158C306.207 212.442 318.909 224.455 323.242 233.441L325.505 238.134L325.754 373.215L326.002 508.296L328.585 507.841C330.006 507.59 343.482 506.083 358.534 504.491C373.586 502.899 387.547 501.334 389.559 501.014L393.218 500.432L392.602 494.035C390.003 467.028 364.284 253.644 360.017 223.684C358.281 211.489 358.148 211.085 354.939 208.253C351.685 205.378 314.918 182.533 249.281 142.601C215.353 121.959 207.124 117.236 205.093 117.236C204.489 117.236 202.033 119.241 199.635 121.69ZM156.504 135.71C153.435 137.924 144.455 144.917 136.546 151.252L122.168 162.77L125.115 166.254C130.169 172.231 137.45 177.976 144.292 181.388C152.212 185.338 153.828 185.461 154.635 182.179C156.727 173.671 169.437 172.346 173.563 180.207C174.888 182.731 175.096 185.544 174.832 197.414C174.52 211.451 174.488 211.633 171.9 214.273C166.975 219.294 156.707 217.138 154.693 210.66C154.355 209.571 152.044 208.482 147.835 207.425C140.626 205.617 129.954 200.695 123.327 196.123C120.859 194.42 115.55 189.579 111.528 185.366L104.217 177.705L97.8443 182.968C94.3404 185.862 76.6096 200.67 58.4438 215.875L25.415 243.518L24.8176 252.868C24.4902 258.011 24.1712 323.232 24.1099 397.807L23.9995 533.396H163.664H303.329V388.271V243.146L296.015 235.795C291.993 231.752 278.997 220.527 267.136 210.851C232.979 182.986 165.315 131.686 162.719 131.686C162.37 131.686 159.573 133.497 156.504 135.71ZM101.381 309.735C94.0347 312.232 90.4553 314.304 85.6 318.873C68.0051 335.43 66.785 361.762 82.7766 379.818C90.6931 388.759 104.738 394.428 116.481 393.426C133.664 391.958 147.731 380.639 153.307 363.797C155.946 355.828 155.584 343.051 152.49 334.949C148.442 324.354 139.127 314.845 128.748 310.713C121.454 307.81 108.414 307.344 101.381 309.735ZM155.423 396.844C73.5021 480.456 70.2398 483.921 70.2398 487.312C70.2398 492.161 74.4297 495.826 79.9738 495.826H83.9014L169.236 408.729C247.323 329.031 254.572 321.367 254.572 318.507C254.572 313.928 249.899 309.903 244.586 309.903H240.606L155.423 396.844ZM106.1 332.577C100.75 335.024 96.7392 339.681 95.1378 345.307C91.5471 357.914 101.043 370.593 114.077 370.593C118.75 370.593 126.293 366.233 129.31 361.789C133.06 356.266 133.544 347.81 130.46 341.705C126.037 332.951 114.627 328.675 106.1 332.577ZM205.423 412.459C183.455 417.534 168.994 440.005 173.5 462.064C175.414 471.435 177.969 476.538 184.174 483.38C187.85 487.431 191.412 490.122 196.507 492.692C203.538 496.239 203.877 496.308 214.574 496.308C224.881 496.308 225.822 496.14 231.853 493.224C243.097 487.786 252.111 476.904 255.206 465.031C255.823 462.664 256.311 457.679 256.291 453.953C256.141 426.649 231.391 406.459 205.423 412.459ZM209.682 435.096C204.796 436.666 200.446 440.129 197.995 444.398C195.846 448.141 195.585 449.509 195.908 455.338C196.223 461.027 196.699 462.537 199.17 465.668C207.65 476.416 221.564 476.458 230.003 465.759C233.072 461.869 234.256 455.468 233.086 449.101C232.391 445.32 227.143 438.706 223.174 436.612C219.871 434.868 212.844 434.078 209.682 435.096ZM359.478 527.665C341.831 529.687 327.074 531.37 326.685 531.406C326.295 531.44 325.977 535.577 325.977 540.597V549.724L328.572 549.272C329.999 549.023 344.544 547.292 360.893 545.424C401.472 540.789 397.842 541.541 397.291 537.882C397.039 536.21 396.572 532.349 396.253 529.302C395.738 524.386 395.442 523.775 393.618 523.875C392.487 523.937 377.124 525.643 359.478 527.665ZM23.9995 566.149V575.783H163.664H303.329V566.149V556.516H163.664H23.9995V566.149ZM361.837 568.61C342.892 570.907 327.074 572.811 326.685 572.84C326.295 572.869 325.977 581.582 325.977 592.203V611.514L329.044 610.995C330.731 610.71 340.179 609.587 350.041 608.499C372.686 606 393.141 603.011 396.49 601.712C397.911 601.16 399.394 600.194 399.786 599.564C400.664 598.155 400.743 581.556 399.917 571.593C399.426 565.666 399.011 564.243 397.794 564.328C396.961 564.384 380.781 566.312 361.837 568.61ZM24.5015 612.63C25.2121 631.083 25.6443 634.23 27.5836 635.076C29.8861 636.08 178.786 637.575 242.933 637.238C298.913 636.946 300.377 636.842 301.793 633.073C302.108 632.234 302.649 624.203 302.996 615.225L303.624 598.903H163.798H23.9721L24.5015 612.63Z" fill="black"/>
</svg>
