<svg width="614" height="652" viewBox="0 0 614 652" fill="none" xmlns="http://www.w3.org/2000/svg">
<path fill-rule="evenodd" clip-rule="evenodd" d="M124.311 2.70568C119.229 5.47435 118.561 8.83498 118.561 31.6145C118.561 48.8127 118.835 52.9711 120.159 55.7662C122.103 59.8717 125.91 61.9964 131.321 61.9964C134.631 61.9964 135.991 61.3829 138.703 58.6642L142.027 55.332V31.6145V7.89707L138.703 4.56486C135.92 1.7756 134.685 1.23951 131.125 1.27185C128.786 1.29341 125.72 1.93829 124.311 2.70568ZM316.934 25.2471C311.853 28.0158 311.184 31.3764 311.184 54.156C311.184 71.3541 311.459 75.5125 312.783 78.3076C315.909 84.9132 325.303 86.7587 330.776 81.8427C334.896 78.142 335.581 74.1923 335.581 54.156C335.581 34.1196 334.896 30.1699 330.776 26.4692C327.344 23.3869 321.326 22.8548 316.934 25.2471ZM6.66988 39.4021C1.51012 42.8117 1.29892 43.9525 1.26078 68.5364L1.22656 91.2483L3.70329 94.1983C8.64403 100.084 16.6159 100.314 21.8607 94.7236C24.1742 92.2578 24.2084 91.9265 24.5183 69.5155C24.7882 49.9887 24.6083 46.3841 23.2365 43.7967C20.0401 37.7684 12.2648 35.7053 6.66988 39.4021ZM220.664 61.7642C203.852 67.7788 193.339 85.8452 196.789 102.797C200.017 118.666 211.167 129.666 226.929 132.53C242.402 135.343 258.739 126.824 265.896 112.213C268.387 107.125 268.649 105.608 268.642 96.2986C268.636 87.431 268.312 85.3533 266.297 81.2723C262.835 74.259 255.5 66.7439 248.935 63.4842C241.47 59.7766 228.437 58.9837 220.664 61.7642ZM402.105 78.9574C392.079 81.2135 386.996 85.9384 384.502 95.3185C383.857 97.7442 382.824 105.863 382.207 113.359L381.086 126.99L371.313 131.065C353.504 138.492 344.928 143.637 332.545 154.318L325.715 160.211L314.294 154.299C286.506 139.913 282.042 142.326 258.509 184.462C249.037 201.422 245.916 210.293 247.35 216.188C247.898 218.437 248.671 221.048 249.069 221.991C249.754 223.614 246.57 223.707 190.009 223.707C122.94 223.707 126.851 223.275 123.912 230.99C121.911 236.241 123.22 242.213 127.027 245.215C129.576 247.225 129.777 247.228 277.093 247.228H424.607V270.749V294.271H226.117H27.6267V271.278V248.285L59.8759 248.001L92.1252 247.718L95.3206 244.514C98.0701 241.756 98.516 240.632 98.516 236.447C98.516 232.262 98.0701 231.138 95.3206 228.38L92.1242 225.177L52.2981 224.917C13.707 224.666 12.3704 224.72 9.23461 226.654C3.36888 230.271 3.18213 231.624 3.18213 270.479C3.18213 289.77 3.57422 306.925 4.05431 308.601C4.86392 311.432 76.0328 390.759 146.846 467.762C160.396 482.498 172.665 496.569 174.11 499.033L176.739 503.514V552.027V600.54L179.534 606.247C183.346 614.03 187.455 616.914 217.983 633.25C236.731 643.281 248.792 648.61 256.24 650.152C261.347 651.209 262.642 651.146 266.542 649.654C272.459 647.389 276.496 642.633 277.841 636.342C278.472 633.393 278.917 620.428 278.917 604.973V578.631L276.374 576.626C270.959 572.356 261.402 573.129 257.459 578.154C255.566 580.565 255.45 582.002 255.45 603.11V625.507L249.828 623.028C241.834 619.501 211.975 603.417 205.583 599.193L200.205 595.64V548.107C200.205 494.747 200.326 495.792 192.923 484.747C188.54 478.207 186.386 475.778 142.967 428.437C125.468 409.358 95.7811 376.768 76.996 356.015L42.841 318.282L135.457 318.033C186.395 317.895 269.594 317.895 320.343 318.033L412.612 318.282L335.385 402.568C292.91 448.925 257.549 488.272 256.804 490.007C254.857 494.543 254.852 542.814 256.799 547.483C260.667 556.763 273.026 557.662 277.5 548.99C278.622 546.817 278.917 541.353 278.917 522.791V499.338L319.118 455.364C341.228 431.177 359.884 410.786 360.577 410.05C361.635 408.924 363.088 409.131 369.743 411.353C374.093 412.804 377.981 414.509 378.382 415.141C378.783 415.772 379.375 422.683 379.698 430.499C380.186 442.292 380.666 445.585 382.519 449.848C385.14 455.881 390.686 461.266 395.937 462.878C401.307 464.526 444.768 465.308 454.917 463.939C464.331 462.669 470.315 459.67 473.392 454.68C475.975 450.49 477.363 440.798 477.387 426.774L477.407 415.699L481.074 414.195C502.049 405.593 511.671 400.109 525.143 389.078L532.303 383.216L543.162 388.385C560.607 396.688 567.738 397.986 575.788 394.322C580.777 392.052 582.999 389.149 594.492 369.888C607.774 347.626 611.651 339.432 612.146 332.572C612.893 322.215 608.164 316.475 589.472 305.052L579.048 298.681L579.805 292.311C580.656 285.16 580.822 259.576 580.074 250.798L579.585 245.058L589.341 239.528C607.154 229.429 612.948 221.513 610.632 210.443C608.657 201.003 595.738 174.715 585.211 158.714C579.057 149.359 574.853 146.76 565.964 146.814C559.594 146.852 558.02 147.333 545.916 152.939C538.691 156.285 532.408 159.022 531.955 159.022C531.501 159.022 527.114 155.767 522.205 151.787C510.859 142.588 505.999 139.662 490.48 132.694L477.896 127.043L476.704 111.426C475.362 93.8504 473.962 88.952 469.046 84.6261C462.934 79.2465 458.059 78.3939 431.451 78.0518C414.922 77.8391 405.824 78.1204 402.105 78.9574ZM225.842 85.2994C224.346 86.2275 222.198 88.9011 221.068 91.2395C219.255 94.9941 219.153 95.9536 220.196 99.4446C223.396 110.152 235.433 112.819 242.766 104.448C245.644 101.164 245.853 100.461 245.443 95.49C245.055 90.8102 244.524 89.6616 241.438 86.8263C238.431 84.0645 237.157 83.5617 233.22 83.5843C230.557 83.599 227.397 84.333 225.842 85.2994ZM76.2968 85.9874C62.9618 89.6665 52.7988 100.901 50.0903 114.954C47.0572 130.698 56.0118 147.835 70.8623 154.709C76.2763 157.215 78.1067 157.552 86.2937 157.552C94.2812 157.552 96.3365 157.194 100.96 154.994C113.864 148.856 121.698 137.351 122.326 123.619C122.744 114.464 120.854 107.256 116.285 100.58C107.65 87.9651 91.0663 81.9123 76.2968 85.9874ZM408.074 102.103C407.085 102.731 406.344 107.289 405.435 118.339C404.74 126.789 403.685 135.181 403.091 136.987C401.555 141.649 395.849 146.401 387.92 149.623C369.83 156.971 357.729 163.799 347.851 172.232C330.217 187.284 327.897 187.59 308.23 177.46C295.047 170.671 294.505 170.485 293.167 172.315C288.952 178.081 271.153 209.417 271.111 211.148C271.103 211.518 275.083 214.495 279.959 217.763L288.823 223.707L323.226 223.68L357.629 223.654L360.073 219.562C361.417 217.312 365.597 212.325 369.362 208.481C385.344 192.162 403.869 183.857 426.619 182.811C469.812 180.823 506.573 210.645 514.074 253.754C515.93 264.42 515.925 271.225 514.054 281.973C511.88 294.475 507.32 305.706 503.463 308.063C497.343 311.803 489.614 309.607 486.617 303.276C484.736 299.305 485.108 296.374 488.751 286.43C491.108 279.996 491.444 277.676 491.444 267.809C491.444 258.198 491.068 255.443 488.883 249.094C485.156 238.26 480.42 230.841 472.325 223.152C460.414 211.837 446.278 206.065 430.473 206.065C416.816 206.065 400.614 211.89 390.873 220.3L386.962 223.677L413.655 223.692C443.914 223.708 444.353 223.8 447.856 230.833C449.985 235.105 450.029 235.931 450.029 271.962C450.029 301.855 449.764 309.368 448.612 312.132C447.833 314.001 443.001 320.119 437.875 325.727C432.749 331.335 428.546 336.315 428.536 336.792C428.526 337.27 432.626 337.446 437.647 337.182C448.638 336.606 455.74 333.761 462.865 327.08C466.831 323.362 468.156 322.693 471.547 322.693C476.904 322.693 480.716 324.83 482.653 328.923C485.722 335.407 484.281 339.385 476.174 346.806C466.563 355.604 454.963 359.832 438.296 360.614C428.57 361.071 425.643 360.712 411.369 357.319C409.79 356.944 406.288 360.208 394.503 373.036C386.322 381.94 379.629 389.471 379.629 389.771C379.629 390.072 380.23 390.317 380.964 390.317C383.846 390.317 396.297 397.429 398.264 400.199C401.47 404.711 402.325 409.226 402.979 425.089L403.584 439.77L408.423 440.58C414.459 441.592 451.533 441.084 452.639 439.975C453.086 439.527 453.689 432.029 453.979 423.314C454.57 405.618 455.227 403.409 461.423 398.29C463.41 396.648 470.789 392.856 477.822 389.863C493.78 383.072 498.191 380.51 509.076 371.709C523.117 360.357 524.729 359.48 531.577 359.462C536.643 359.448 538.865 360.09 546.341 363.728C551.181 366.084 557.408 369.037 560.18 370.289L565.219 372.568L567.899 368.509C572.351 361.767 587.896 334.206 587.896 333.057C587.896 332.467 583.683 329.342 578.532 326.114C553.274 310.276 552.845 309.521 556.541 287.411C557.806 279.843 557.785 265.263 556.49 252.838C554.595 234.651 556.926 230.712 575.952 219.956C581.984 216.546 586.916 213.238 586.911 212.605C586.891 209.575 566.094 170.783 564.488 170.783C564.03 170.783 558.937 172.991 553.172 175.689C530.544 186.281 526.829 185.969 509.674 172.044C497.34 162.031 493.793 159.844 479.958 153.722C464.088 146.7 459.629 143.655 456.878 137.961C454.699 133.45 453.071 121.059 452.998 108.433L452.962 102.436L449.296 101.828C443.642 100.891 409.626 101.118 408.074 102.103ZM80.8328 109.452C76.9353 111.153 73.9726 114.981 73.1494 119.376C71.8381 126.381 78.7442 134.521 85.9984 134.521C99.5515 134.521 104.064 115.489 91.8837 109.696C87.777 107.743 84.8955 107.679 80.8328 109.452ZM164.702 138.467C159.26 141.792 158.65 144.726 158.652 167.567C158.653 190.61 159.29 193.302 165.54 196.656C169.828 198.957 175.394 198.192 178.735 194.843C182.568 191.001 183.291 185.779 182.934 164.483C182.567 142.535 182.008 140.504 175.593 137.818C171.212 135.983 168.501 136.145 164.702 138.467ZM365.397 405.074C362.636 407.964 362.618 408.039 364.91 407.189C367.328 406.293 370.845 402.078 369.175 402.078C368.673 402.078 366.972 403.426 365.397 405.074Z" fill="black"/>
</svg>
