<svg width="635" height="635" viewBox="0 0 635 635" fill="none" xmlns="http://www.w3.org/2000/svg">
<path fill-rule="evenodd" clip-rule="evenodd" d="M286.27 3.02599C213.983 10.4282 145.604 42.7614 94.3712 93.7645C42.4246 145.479 9.91031 214.412 2.59076 288.346C1.32131 301.167 1.32131 334.459 2.59076 347.279C14.7304 469.909 94.8405 573.251 210.161 615.048C270.046 636.753 335.499 639.744 397.347 623.604C480.816 601.82 551.316 547.346 593.669 471.91C611.851 439.525 624.597 401.743 630.722 362.075C633.224 345.88 634.194 307.341 632.546 289.715C629.764 259.989 622.78 230.496 611.643 201.462C605.81 186.253 591.278 158.038 587.627 154.834C581.525 149.476 571.437 151.805 569.019 159.129C567.516 163.682 567.938 165.081 574.252 176.482C590.453 205.735 602.206 240.534 607.695 275.503C609.526 287.163 609.809 292.826 609.809 317.813C609.809 342.799 609.526 348.462 607.695 360.122C597.339 426.099 566.492 485.546 519.678 529.751C516.651 532.61 514.047 534.773 513.894 534.559C513.741 534.344 512.234 528.6 510.546 521.794C505.097 499.828 493.706 476.113 479.486 457.126C434.165 396.614 354.549 366.937 278.716 382.289C227.317 392.695 183.425 421.175 154.309 463.011C141.727 481.093 130.401 507.061 125.653 528.723C124.686 533.132 123.72 536.914 123.504 537.13C122.869 537.765 95.8031 509.804 89.4463 501.947C86.2342 497.975 79.9302 489.321 75.44 482.715C49.8298 445.043 34.0491 404.227 26.9883 357.392C24.9716 344.016 24.1484 306.387 25.5544 291.85C31.8901 226.321 58.1004 167.259 102.23 119.069C146.789 70.4106 208.014 38.0189 274.726 27.8088C291.507 25.2404 326.293 24.2827 343.655 25.9106C393.122 30.5493 439.252 46.8048 478.911 73.5714C498.877 87.0469 500.584 87.8864 505.382 86.595C510.813 85.1324 514.194 80.8573 514.194 75.4532C514.194 69.8183 511.357 67.0586 493.234 55.0638C448.767 25.6327 399.695 8.13487 346.996 2.91926C335.286 1.76055 297.991 1.82594 286.27 3.02599ZM545.083 98.1744C534.277 100.459 531.846 116.34 541.41 122.17C548.934 126.757 558.837 122.859 561.05 114.439C563.621 104.651 555.171 96.0416 545.083 98.1744ZM307.739 128.924C298.344 129.833 283.359 133.685 275.281 137.265C250.002 148.469 231.324 166.353 219.411 190.76C185.238 260.774 232.021 343.351 309.573 349.908C342.473 352.69 374.321 340.931 397.828 317.323C425.632 289.4 436.298 249.216 426.138 210.667C414.353 165.95 375.708 133.42 328.975 128.877C318.442 127.853 318.815 127.852 307.739 128.924ZM297.282 154.284C267.219 162.057 242.861 185.839 234.148 215.928C232.231 222.552 231.936 225.706 231.95 239.444C231.969 257.972 232.954 262.61 240.015 277.426C248.686 295.622 262.402 309.347 280.832 318.269C295.631 325.433 300.307 326.434 318.968 326.434C337.5 326.434 342.118 325.456 356.955 318.387C379.496 307.648 396.657 287.46 403.636 263.472C406.88 252.32 407.366 231.221 404.641 219.802C398.4 193.653 380.727 171.515 356.976 160.092C339.695 151.781 315.914 149.468 297.282 154.284ZM303.434 402.049C259.221 405.454 215.058 427.305 186.053 460.127C163.225 485.958 150.553 514.244 145.445 550.768L144.872 554.867L155.705 561.969C193.045 586.449 230.674 600.775 276.64 608.01C294.474 610.817 339.507 611.027 356.475 608.384C404.71 600.868 443.97 585.834 481.977 560.324L492.556 553.224L492.246 548.984C491.682 541.247 488.277 526.324 484.778 516.237C475.299 488.924 458.663 464.106 437.456 445.645C408.002 420.006 371.892 404.993 332.432 401.985C318.264 400.904 318.312 400.904 303.434 402.049Z" fill="black"/>
</svg>
