<?xml version="1.0" encoding="UTF-8" standalone="no"?>
<!DOCTYPE svg PUBLIC "-//W3C//DTD SVG 1.1//EN" "http://www.w3.org/Graphics/SVG/1.1/DTD/svg11.dtd">
<svg width="100%" height="100%" viewBox="0 0 127 126" version="1.1" xmlns="http://www.w3.org/2000/svg" xmlns:xlink="http://www.w3.org/1999/xlink" xml:space="preserve" xmlns:serif="http://www.serif.com/" style="fill-rule:evenodd;clip-rule:evenodd;stroke-linejoin:round;stroke-miterlimit:2;">
    <g transform="matrix(1,0,0,1,-230.75,-244.209)">
        <path d="M230.75,307.204C230.75,341.995 258.954,370.199 293.745,370.199L293.756,370.199C328.547,370.199 356.751,341.995 356.751,307.204C356.751,272.413 328.547,244.209 293.756,244.209L293.745,244.209C258.954,244.209 230.75,272.413 230.75,307.204ZM330.28,328.179L314.72,343.729L293.75,322.759L272.78,343.729L257.22,328.179L278.2,307.209L257.22,286.229L272.78,270.679L293.75,291.649L314.72,270.679L330.28,286.229L309.31,307.209L330.28,328.179Z" style="fill:rgb(234,52,66);fill-rule:nonzero;"/>
    </g>
</svg>
