<?xml version="1.0" encoding="UTF-8" standalone="no"?>
<!DOCTYPE svg PUBLIC "-//W3C//DTD SVG 1.1//EN" "http://www.w3.org/Graphics/SVG/1.1/DTD/svg11.dtd">
<svg width="100%" height="100%" viewBox="0 0 488 73" version="1.1" xmlns="http://www.w3.org/2000/svg" xmlns:xlink="http://www.w3.org/1999/xlink" xml:space="preserve" xmlns:serif="http://www.serif.com/" style="fill-rule:evenodd;clip-rule:evenodd;stroke-linejoin:round;stroke-miterlimit:2;">
    <g transform="matrix(3.82705,0,0,3.82704,115.486,-169.93)">
        <g transform="matrix(22.6662,0,0,22.6662,18.3232,58.4556)">
            <path d="M0.452,-0.073C0.429,-0.048 0.403,-0.029 0.372,-0.016C0.341,-0.003 0.304,0.004 0.261,0.004C0.22,0.004 0.185,-0.003 0.155,-0.017C0.125,-0.03 0.1,-0.049 0.08,-0.072C0.06,-0.095 0.045,-0.122 0.035,-0.152C0.025,-0.182 0.02,-0.214 0.02,-0.247C0.02,-0.291 0.026,-0.329 0.038,-0.362C0.05,-0.394 0.067,-0.421 0.088,-0.442C0.109,-0.463 0.133,-0.479 0.16,-0.49C0.187,-0.5 0.217,-0.505 0.248,-0.505C0.322,-0.505 0.378,-0.481 0.415,-0.433C0.452,-0.385 0.47,-0.315 0.47,-0.223L0.124,-0.223C0.129,-0.181 0.144,-0.148 0.169,-0.125C0.193,-0.101 0.225,-0.089 0.265,-0.089C0.289,-0.089 0.312,-0.094 0.334,-0.104C0.356,-0.114 0.378,-0.131 0.399,-0.154L0.463,-0.086L0.452,-0.073ZM0.248,-0.416C0.211,-0.416 0.184,-0.407 0.166,-0.388C0.147,-0.369 0.135,-0.345 0.128,-0.315L0.366,-0.315C0.363,-0.344 0.351,-0.368 0.332,-0.387C0.312,-0.406 0.284,-0.416 0.248,-0.416Z" style="fill:rgb(93,93,93);fill-rule:nonzero;"/>
        </g>
        <g transform="matrix(22.6662,0,0,22.6662,29.4297,58.4556)">
            <path d="M0.062,-0.407L0.02,-0.407L0.02,-0.502L0.062,-0.502L0.062,-0.62L0.164,-0.62L0.164,-0.502L0.245,-0.502L0.245,-0.407L0.164,-0.407L0.164,-0.192C0.164,-0.179 0.165,-0.166 0.166,-0.154C0.167,-0.141 0.169,-0.13 0.172,-0.121C0.174,-0.111 0.179,-0.103 0.185,-0.097C0.19,-0.091 0.198,-0.088 0.207,-0.087C0.212,-0.086 0.216,-0.086 0.221,-0.087C0.225,-0.088 0.229,-0.089 0.234,-0.09L0.256,-0.091L0.27,-0.005C0.256,-0.002 0.244,-0 0.233,0.002C0.222,0.003 0.213,0.004 0.206,0.004C0.178,0.004 0.155,-0.001 0.136,-0.012C0.117,-0.023 0.102,-0.037 0.092,-0.055C0.081,-0.072 0.073,-0.093 0.069,-0.116C0.064,-0.139 0.062,-0.164 0.062,-0.19L0.062,-0.407Z" style="fill:rgb(93,93,93);fill-rule:nonzero;"/>
        </g>
        <g transform="matrix(22.6662,0,0,22.6662,36.0029,58.4556)">
            <path d="M0.334,-0.206C0.318,-0.212 0.301,-0.216 0.284,-0.217C0.266,-0.218 0.248,-0.219 0.229,-0.219C0.216,-0.219 0.203,-0.218 0.19,-0.216C0.177,-0.213 0.166,-0.209 0.156,-0.204C0.145,-0.199 0.137,-0.191 0.131,-0.182C0.124,-0.172 0.121,-0.16 0.121,-0.146C0.121,-0.127 0.129,-0.112 0.145,-0.102C0.161,-0.092 0.184,-0.087 0.213,-0.087C0.236,-0.087 0.259,-0.092 0.28,-0.101C0.301,-0.11 0.319,-0.125 0.334,-0.144L0.334,-0.206ZM0.334,-0L0.334,-0.024C0.315,-0.011 0.295,-0.003 0.273,0.001C0.25,0.004 0.226,0.005 0.199,0.005C0.174,0.005 0.15,0.002 0.128,-0.005C0.106,-0.011 0.087,-0.02 0.071,-0.033C0.055,-0.046 0.043,-0.061 0.034,-0.08C0.025,-0.099 0.02,-0.12 0.02,-0.145C0.02,-0.174 0.025,-0.199 0.036,-0.221C0.047,-0.242 0.061,-0.26 0.079,-0.275C0.097,-0.289 0.118,-0.3 0.142,-0.307C0.166,-0.314 0.191,-0.317 0.217,-0.317C0.238,-0.317 0.259,-0.317 0.278,-0.316C0.297,-0.315 0.315,-0.312 0.334,-0.307L0.334,-0.319C0.334,-0.348 0.325,-0.371 0.306,-0.387C0.287,-0.402 0.262,-0.41 0.229,-0.41C0.218,-0.41 0.208,-0.409 0.199,-0.408C0.19,-0.407 0.181,-0.404 0.172,-0.4C0.163,-0.396 0.155,-0.39 0.146,-0.383C0.137,-0.375 0.128,-0.365 0.118,-0.353L0.044,-0.417C0.07,-0.447 0.098,-0.469 0.127,-0.484C0.156,-0.498 0.191,-0.505 0.231,-0.505C0.261,-0.505 0.289,-0.501 0.314,-0.494C0.339,-0.486 0.36,-0.474 0.378,-0.46C0.396,-0.444 0.41,-0.426 0.42,-0.404C0.43,-0.381 0.435,-0.356 0.435,-0.327L0.435,-0L0.334,-0Z" style="fill:rgb(93,93,93);fill-rule:nonzero;"/>
        </g>
        <g transform="matrix(22.6662,0,0,22.6662,46.316,58.4556)">
            <path d="M0.36,-0.005C0.334,0.001 0.308,0.004 0.282,0.004C0.249,0.004 0.216,-0.001 0.185,-0.011C0.154,-0.02 0.126,-0.035 0.102,-0.056C0.078,-0.077 0.059,-0.103 0.044,-0.135C0.029,-0.167 0.022,-0.205 0.022,-0.25C0.022,-0.287 0.028,-0.321 0.04,-0.352C0.052,-0.383 0.069,-0.41 0.092,-0.433C0.115,-0.456 0.142,-0.473 0.175,-0.486C0.208,-0.499 0.244,-0.505 0.285,-0.505C0.312,-0.505 0.341,-0.502 0.37,-0.497C0.399,-0.492 0.429,-0.484 0.461,-0.475L0.461,0.002C0.461,0.041 0.455,0.075 0.444,0.103C0.433,0.13 0.417,0.153 0.397,0.171C0.376,0.188 0.352,0.201 0.324,0.209C0.295,0.217 0.264,0.221 0.23,0.221C0.187,0.221 0.149,0.213 0.114,0.196C0.079,0.179 0.048,0.155 0.02,0.126L0.088,0.052C0.129,0.099 0.177,0.122 0.232,0.122C0.275,0.122 0.307,0.114 0.328,0.097C0.349,0.08 0.36,0.051 0.36,0.011L0.36,-0.005ZM0.126,-0.251C0.126,-0.199 0.14,-0.159 0.17,-0.131C0.199,-0.103 0.238,-0.089 0.287,-0.089C0.298,-0.089 0.31,-0.09 0.323,-0.093C0.335,-0.096 0.347,-0.099 0.36,-0.102L0.36,-0.402C0.335,-0.409 0.308,-0.412 0.279,-0.412C0.231,-0.412 0.194,-0.397 0.167,-0.368C0.139,-0.338 0.126,-0.299 0.126,-0.251Z" style="fill:rgb(93,93,93);fill-rule:nonzero;"/>
        </g>
        <g transform="matrix(22.6662,0,0,22.6662,57.2185,58.4556)">
            <path d="M0.334,-0.206C0.318,-0.212 0.301,-0.216 0.284,-0.217C0.266,-0.218 0.248,-0.219 0.229,-0.219C0.216,-0.219 0.203,-0.218 0.19,-0.216C0.177,-0.213 0.166,-0.209 0.156,-0.204C0.145,-0.199 0.137,-0.191 0.131,-0.182C0.124,-0.172 0.121,-0.16 0.121,-0.146C0.121,-0.127 0.129,-0.112 0.145,-0.102C0.161,-0.092 0.184,-0.087 0.213,-0.087C0.236,-0.087 0.259,-0.092 0.28,-0.101C0.301,-0.11 0.319,-0.125 0.334,-0.144L0.334,-0.206ZM0.334,-0L0.334,-0.024C0.315,-0.011 0.295,-0.003 0.273,0.001C0.25,0.004 0.226,0.005 0.199,0.005C0.174,0.005 0.15,0.002 0.128,-0.005C0.106,-0.011 0.087,-0.02 0.071,-0.033C0.055,-0.046 0.043,-0.061 0.034,-0.08C0.025,-0.099 0.02,-0.12 0.02,-0.145C0.02,-0.174 0.025,-0.199 0.036,-0.221C0.047,-0.242 0.061,-0.26 0.079,-0.275C0.097,-0.289 0.118,-0.3 0.142,-0.307C0.166,-0.314 0.191,-0.317 0.217,-0.317C0.238,-0.317 0.259,-0.317 0.278,-0.316C0.297,-0.315 0.315,-0.312 0.334,-0.307L0.334,-0.319C0.334,-0.348 0.325,-0.371 0.306,-0.387C0.287,-0.402 0.262,-0.41 0.229,-0.41C0.218,-0.41 0.208,-0.409 0.199,-0.408C0.19,-0.407 0.181,-0.404 0.172,-0.4C0.163,-0.396 0.155,-0.39 0.146,-0.383C0.137,-0.375 0.128,-0.365 0.118,-0.353L0.044,-0.417C0.07,-0.447 0.098,-0.469 0.127,-0.484C0.156,-0.498 0.191,-0.505 0.231,-0.505C0.261,-0.505 0.289,-0.501 0.314,-0.494C0.339,-0.486 0.36,-0.474 0.378,-0.46C0.396,-0.444 0.41,-0.426 0.42,-0.404C0.43,-0.381 0.435,-0.356 0.435,-0.327L0.435,-0L0.334,-0Z" style="fill:rgb(93,93,93);fill-rule:nonzero;"/>
        </g>
        <g transform="matrix(22.6662,0,0,22.6662,67.5316,58.4556)">
            <path d="M0.122,-0.5L0.122,-0.187C0.122,-0.17 0.125,-0.156 0.131,-0.144C0.136,-0.131 0.144,-0.121 0.154,-0.113C0.164,-0.104 0.176,-0.098 0.189,-0.094C0.202,-0.09 0.216,-0.088 0.231,-0.088C0.262,-0.088 0.288,-0.094 0.308,-0.106C0.328,-0.118 0.344,-0.133 0.355,-0.15L0.355,-0.5L0.457,-0.5L0.457,-0L0.358,-0L0.358,-0.028C0.323,-0.005 0.276,0.006 0.216,0.006C0.189,0.006 0.163,0.002 0.14,-0.006C0.116,-0.013 0.095,-0.025 0.078,-0.04C0.06,-0.055 0.046,-0.073 0.036,-0.096C0.025,-0.119 0.02,-0.145 0.02,-0.174L0.02,-0.5L0.122,-0.5Z" style="fill:rgb(93,93,93);fill-rule:nonzero;"/>
        </g>
        <g transform="matrix(22.6662,0,0,22.6662,78.3434,58.4556)">
            <path d="M0.318,-0.361C0.305,-0.378 0.29,-0.391 0.275,-0.4C0.259,-0.409 0.24,-0.413 0.219,-0.413C0.195,-0.413 0.178,-0.409 0.168,-0.401C0.157,-0.392 0.152,-0.382 0.152,-0.369C0.152,-0.352 0.161,-0.338 0.18,-0.329C0.199,-0.32 0.22,-0.311 0.244,-0.304C0.262,-0.298 0.28,-0.292 0.299,-0.285C0.317,-0.278 0.334,-0.268 0.349,-0.257C0.364,-0.245 0.376,-0.23 0.386,-0.213C0.395,-0.195 0.4,-0.173 0.4,-0.147C0.4,-0.123 0.395,-0.101 0.386,-0.083C0.376,-0.064 0.363,-0.048 0.346,-0.035C0.329,-0.022 0.31,-0.012 0.288,-0.005C0.265,0.002 0.241,0.005 0.216,0.005C0.178,0.005 0.143,-0.003 0.112,-0.019C0.081,-0.034 0.05,-0.059 0.02,-0.094L0.096,-0.164C0.133,-0.115 0.174,-0.09 0.219,-0.09C0.246,-0.09 0.267,-0.095 0.28,-0.104C0.293,-0.113 0.299,-0.125 0.299,-0.138C0.299,-0.149 0.296,-0.158 0.291,-0.165C0.286,-0.172 0.279,-0.179 0.27,-0.185C0.261,-0.19 0.25,-0.195 0.238,-0.199C0.226,-0.203 0.214,-0.207 0.201,-0.211C0.183,-0.216 0.165,-0.222 0.147,-0.229C0.129,-0.236 0.113,-0.245 0.099,-0.256C0.085,-0.267 0.074,-0.281 0.065,-0.298C0.056,-0.315 0.051,-0.336 0.051,-0.362C0.051,-0.409 0.067,-0.445 0.099,-0.47C0.13,-0.495 0.171,-0.508 0.222,-0.508C0.257,-0.508 0.29,-0.501 0.319,-0.487C0.347,-0.473 0.376,-0.448 0.405,-0.413L0.333,-0.344L0.318,-0.361Z" style="fill:rgb(93,93,93);fill-rule:nonzero;"/>
        </g>
        <g transform="matrix(22.6662,0,0,22.6662,87.9765,58.4556)">
            <path d="M0.318,-0.361C0.305,-0.378 0.29,-0.391 0.275,-0.4C0.259,-0.409 0.24,-0.413 0.219,-0.413C0.195,-0.413 0.178,-0.409 0.168,-0.401C0.157,-0.392 0.152,-0.382 0.152,-0.369C0.152,-0.352 0.161,-0.338 0.18,-0.329C0.199,-0.32 0.22,-0.311 0.244,-0.304C0.262,-0.298 0.28,-0.292 0.299,-0.285C0.317,-0.278 0.334,-0.268 0.349,-0.257C0.364,-0.245 0.376,-0.23 0.386,-0.213C0.395,-0.195 0.4,-0.173 0.4,-0.147C0.4,-0.123 0.395,-0.101 0.386,-0.083C0.376,-0.064 0.363,-0.048 0.346,-0.035C0.329,-0.022 0.31,-0.012 0.288,-0.005C0.265,0.002 0.241,0.005 0.216,0.005C0.178,0.005 0.143,-0.003 0.112,-0.019C0.081,-0.034 0.05,-0.059 0.02,-0.094L0.096,-0.164C0.133,-0.115 0.174,-0.09 0.219,-0.09C0.246,-0.09 0.267,-0.095 0.28,-0.104C0.293,-0.113 0.299,-0.125 0.299,-0.138C0.299,-0.149 0.296,-0.158 0.291,-0.165C0.286,-0.172 0.279,-0.179 0.27,-0.185C0.261,-0.19 0.25,-0.195 0.238,-0.199C0.226,-0.203 0.214,-0.207 0.201,-0.211C0.183,-0.216 0.165,-0.222 0.147,-0.229C0.129,-0.236 0.113,-0.245 0.099,-0.256C0.085,-0.267 0.074,-0.281 0.065,-0.298C0.056,-0.315 0.051,-0.336 0.051,-0.362C0.051,-0.409 0.067,-0.445 0.099,-0.47C0.13,-0.495 0.171,-0.508 0.222,-0.508C0.257,-0.508 0.29,-0.501 0.319,-0.487C0.347,-0.473 0.376,-0.448 0.405,-0.413L0.333,-0.344L0.318,-0.361Z" style="fill:rgb(93,93,93);fill-rule:nonzero;"/>
        </g>
    </g>
    <g transform="matrix(3.42878,0.0116522,-0.0111251,3.27367,72.817,-101.803)">
        <g transform="matrix(0.535846,0,0,0.585125,-240,-20.7613)">
            <path d="M479.608,112.519C479.792,112.246 480.003,111.984 480.245,111.743L488.257,103.731L488.257,92.905C488.257,91.15 487.208,89.582 485.584,88.909C485.058,88.692 484.503,88.582 483.934,88.582C482.777,88.582 481.691,89.031 480.875,89.848L462.038,108.685C461.221,109.5 460.771,110.585 460.771,111.741C460.771,112.897 461.221,113.983 462.038,114.798C462.854,115.614 463.939,116.063 465.094,116.063C466.249,116.063 467.336,115.614 468.153,114.798L479.608,103.343L479.608,112.519Z" style="fill:rgb(101,0,166);fill-rule:nonzero;"/>
        </g>
        <g transform="matrix(0.535846,0,0,0.585125,-240,-20.7613)">
            <path d="M505.244,88.776C504.717,88.558 504.16,88.447 503.59,88.447C502.435,88.447 501.348,88.897 500.531,89.714L480.874,109.372C479.188,111.058 479.188,113.801 480.874,115.487C481.69,116.304 482.776,116.753 483.932,116.753C485.087,116.753 486.173,116.304 486.989,115.487L499.265,103.212L499.265,112.43C499.265,114.813 501.205,116.753 503.59,116.753C505.974,116.753 507.914,114.813 507.914,112.43L507.914,92.772C507.914,91.017 506.866,89.448 505.244,88.776Z" style="fill:rgb(162,0,255);fill-rule:nonzero;"/>
        </g>
    </g>
    <g transform="matrix(1,0,0,1,-31.4938,12.0419)">
        <g transform="matrix(72,0,0,72,30.0538,39.0895)">
            <path d="M0.02,-0L0.02,-0.7L0.298,-0.7C0.325,-0.7 0.35,-0.695 0.374,-0.685C0.398,-0.674 0.419,-0.66 0.437,-0.642C0.454,-0.624 0.468,-0.603 0.479,-0.579C0.489,-0.555 0.494,-0.53 0.494,-0.503C0.494,-0.48 0.49,-0.457 0.481,-0.435C0.472,-0.412 0.46,-0.392 0.445,-0.375C0.472,-0.356 0.494,-0.332 0.509,-0.303C0.524,-0.274 0.532,-0.242 0.532,-0.207C0.532,-0.178 0.527,-0.151 0.516,-0.126C0.505,-0.101 0.49,-0.079 0.471,-0.06C0.452,-0.041 0.429,-0.027 0.404,-0.016C0.379,-0.005 0.352,-0 0.323,-0L0.02,-0ZM0.128,-0.108L0.324,-0.108C0.338,-0.108 0.351,-0.111 0.364,-0.117C0.376,-0.123 0.387,-0.131 0.396,-0.141C0.405,-0.15 0.413,-0.162 0.418,-0.175C0.423,-0.188 0.426,-0.201 0.426,-0.215C0.426,-0.243 0.416,-0.266 0.396,-0.283C0.376,-0.3 0.352,-0.308 0.324,-0.308L0.128,-0.308L0.128,-0.108ZM0.128,-0.592L0.128,-0.416L0.299,-0.416C0.324,-0.416 0.345,-0.425 0.362,-0.442C0.379,-0.459 0.387,-0.479 0.387,-0.504C0.387,-0.529 0.379,-0.55 0.362,-0.567C0.345,-0.584 0.324,-0.592 0.299,-0.592L0.128,-0.592Z" style="fill:rgb(93,93,93);fill-rule:nonzero;"/>
        </g>
        <g transform="matrix(72,0,0,72,69.7978,39.0895)">
            <path d="M0.075,0.103C0.088,0.1 0.102,0.096 0.12,0.091C0.136,0.086 0.153,0.079 0.168,0.07C0.183,0.061 0.196,0.05 0.207,0.038C0.218,0.025 0.223,0.009 0.224,-0.008L0.02,-0.5L0.134,-0.5L0.276,-0.145L0.417,-0.5L0.527,-0.5L0.324,-0.004L0.324,-0.005L0.307,0.04L0.307,0.039C0.295,0.079 0.271,0.113 0.235,0.142C0.199,0.17 0.153,0.187 0.097,0.194L0.075,0.103Z" style="fill:rgb(93,93,93);fill-rule:nonzero;"/>
        </g>
    </g>
</svg>
