<?xml version="1.0" encoding="UTF-8" standalone="no"?>
<!DOCTYPE svg PUBLIC "-//W3C//DTD SVG 1.1//EN" "http://www.w3.org/Graphics/SVG/1.1/DTD/svg11.dtd">
<svg width="100%" height="100%" viewBox="0 0 794 794" version="1.1" xmlns="http://www.w3.org/2000/svg" xmlns:xlink="http://www.w3.org/1999/xlink" xml:space="preserve" xmlns:serif="http://www.serif.com/" style="fill-rule:evenodd;clip-rule:evenodd;stroke-linejoin:round;stroke-miterlimit:2;">
    <g transform="matrix(1,0,0,1,-1183.47,-234.628)">
        <path d="M1976.99,631.385C1976.99,648.445 1953.55,663.796 1951.4,680.27C1949.2,697.13 1967.87,717.993 1963.57,734.095C1959.19,750.471 1932.57,759.226 1926.16,774.667C1919.69,790.285 1932.28,815.297 1923.89,829.799C1915.44,844.403 1887.46,845.952 1877.23,859.264C1866.97,872.619 1872.67,900.045 1860.78,911.936C1848.89,923.827 1821.47,918.123 1808.11,928.385C1794.8,938.614 1793.25,966.593 1778.65,975.042C1764.14,983.433 1739.13,970.841 1723.51,977.317C1708.07,983.72 1699.32,1010.34 1682.94,1014.72C1666.84,1019.02 1645.98,1000.35 1629.12,1002.55C1612.64,1004.7 1597.29,1028.14 1580.23,1028.14C1563.17,1028.14 1547.82,1004.7 1531.35,1002.55C1514.49,1000.36 1493.62,1019.02 1477.52,1014.72C1461.15,1010.34 1452.39,983.719 1436.95,977.316C1421.33,970.84 1396.32,983.432 1381.82,975.041C1367.21,966.592 1365.67,938.613 1352.35,928.384C1339,918.121 1311.57,923.825 1299.68,911.935C1287.79,900.044 1293.5,872.618 1283.23,859.263C1273,845.951 1245.03,844.402 1236.58,829.798C1228.18,815.295 1240.78,790.284 1234.3,774.666C1227.9,759.226 1201.28,750.47 1196.9,734.094C1192.6,717.992 1211.26,697.129 1209.07,680.27C1206.92,663.796 1183.48,648.445 1183.48,631.385C1183.48,614.325 1206.92,598.975 1209.07,582.501C1211.26,565.641 1192.6,544.778 1196.9,528.676C1201.28,512.3 1227.9,503.545 1234.3,488.104C1240.78,472.486 1228.19,447.474 1236.58,432.972C1245.03,418.368 1273.01,416.819 1283.23,403.507C1293.5,390.152 1287.79,362.726 1299.68,350.835C1311.57,338.944 1339,344.648 1352.36,334.386C1365.67,324.157 1367.22,296.178 1381.82,287.729C1396.32,279.338 1421.33,291.93 1436.95,285.454C1452.39,279.051 1461.15,252.431 1477.52,248.054C1493.63,243.75 1514.49,262.417 1531.35,260.218C1547.82,258.07 1563.17,234.628 1580.23,234.628C1597.29,234.628 1612.64,258.07 1629.12,260.218C1645.98,262.416 1666.84,243.75 1682.94,248.054C1699.32,252.431 1708.07,279.052 1723.52,285.455C1739.13,291.931 1764.14,279.339 1778.65,287.73C1793.25,296.179 1794.8,324.158 1808.11,334.387C1821.47,344.65 1848.89,338.946 1860.78,350.836C1872.67,362.727 1866.97,390.153 1877.23,403.508C1887.46,416.82 1915.44,418.369 1923.89,432.973C1932.28,447.476 1919.69,472.487 1926.16,488.105C1932.57,503.545 1959.19,512.301 1963.57,528.677C1967.87,544.779 1949.2,565.642 1951.4,582.501C1953.55,598.974 1976.99,614.325 1976.99,631.385Z" style="fill:rgb(118,191,61);fill-rule:nonzero;"/>
        <path d="M1730.23,484.873L1513.5,680.591C1477.95,652.641 1426.93,612.539 1426.93,612.539C1402.05,593.874 1371.01,624.539 1389.77,649.707L1484.24,769.888C1485.59,771.573 1487.22,773.351 1488.87,774.843C1505.23,789.615 1530.46,788.329 1545.23,771.971L1547.11,769.888C1547.11,769.888 1769.26,523.896 1769.26,523.896C1791.7,497.133 1756.87,462.372 1730.23,484.873Z" style="fill:white;fill-rule:nonzero;"/>
    </g>
</svg>
