<svg xmlns="http://www.w3.org/2000/svg" width="674" height="542" fill="none" viewBox="0 0 674 542"><g clip-path="url(#a)"><path fill="#000" fill-rule="evenodd" d="M419.639 5.96c-1.758 6.786-1.748 6.763-22.581 53.532L377.94 102.41l-3.751-.29-3.752-.29-21.786-48.058c-25.213-55.619-22.687-52.326-32.796-42.738-4.397 4.17-6.133 6.524-6.133 8.316 0 1.375 11.149 26.895 24.774 56.711l24.774 54.211.49 49.266.491 49.265 3.207 3.207c3.194 3.19 3.252 3.205 12.982 3.205s9.788-.015 12.981-3.205l3.207-3.207.275-45.32.274-45.321 25.106-56.302c29.596-66.368 28.171-58.87 13.708-72.141-5.046-4.63-9.618-8.418-10.16-8.418-.542 0-1.529 2.097-2.192 4.658ZM166.835 4.163c-1.985 1.21-3.685 3.47-4.795 6.374-1.603 4.196-1.681 9.743-1.148 82.712.322 44.147 1.033 82.913 1.635 89.003 1.305 13.233 4.961 26.703 9.146 33.696 6.155 10.288 17.195 18.153 28.946 20.624 7.683 1.615 28.417 1.361 37.219-.456 9.748-2.013 16.062-5.289 22.401-11.627 8.343-8.341 13.225-20.377 15.14-37.333 1.43-12.668 3.129-98.764 2.766-140.25-.304-34.678-.349-35.363-2.491-38.366-5.554-7.783-17.31-6.411-20.749 2.42-.654 1.678-1.174 31.464-1.466 84.003-.469 84.089-.909 94.017-4.599 103.876-4.447 11.882-9.165 14.428-27.91 15.065-15.672.533-19.675-.405-25.437-5.953-5.556-5.35-8.099-13.388-9.506-30.059-.572-6.772-1.333-47.544-1.691-90.606l-.649-78.293-3.665-3.356c-4.28-3.92-8.381-4.38-13.147-1.474ZM20.556 10.162c-4.762 2.423-7.582 6.44-9.02 12.853-.648 2.89-1.036 39.825-1.092 103.737-.083 94.114.004 99.407 1.69 102.283.976 1.667 3.021 3.961 4.543 5.096 2.583 1.927 4.214 2.086 24.528 2.388 31.088.461 49.415-1.481 58.55-6.205 5.73-2.964 15.074-13.145 18.453-20.109 4.386-9.039 5.953-16.081 7.27-32.675 2.312-29.15-3.307-47.965-18.246-61.097l-5.02-4.411 4.999-5.27c9.745-10.272 15.336-25.675 15.318-42.191-.022-18.653-4.996-32.689-15.256-43.046C96.056 10.192 91.376 9.055 53.646 8.489c-28.12-.422-29.061-.375-33.09 1.674Zm472.555.882c-4.451 1.386-7.817 4.173-10.03 8.306-2.058 3.845-2.171 5.426-2.641 36.874-.647 43.356-.086 57.33 2.476 61.705 1.066 1.821 3.185 4.24 4.708 5.375 2.683 2.002 3.909 2.073 39.968 2.343l37.198.279.259 201.269c.243 188.664.365 201.464 1.957 204.371 2.225 4.066 5.951 6.915 10.94 8.367 5.518 1.606 71.35 1.584 79.589-.026 11.351-2.22 14.201-6.061 15.552-20.963 1.097-12.094.962-335.548-.183-438.691-.631-56.787-.723-58.965-2.649-62.245-1.098-1.868-3.526-4.296-5.396-5.394-3.339-1.96-4.855-1.999-86.305-2.178-45.599-.1-84.048.173-85.443.608ZM34.023 66.519v35.059l16.434-.688c26.864-1.122 35.396-3.883 42.09-13.618 4.455-6.479 6.231-13.114 6.231-23.276 0-11.887-2.682-20.313-8.234-25.863-2.296-2.294-5.466-4.485-7.045-4.869-1.58-.382-13.357-.945-26.174-1.25l-23.302-.554v35.06Zm469.964 1.468v34.333l37.038.004c41.738.004 41.209-.084 44.966 7.481 1.837 3.699 1.89 8.849 2.147 205.449l.263 201.656 13.331.508c7.331.279 20.946.28 30.254.001l16.926-.508.628-10.897c.763-13.254.592-304.383-.237-401.732l-.598-70.125-72.359-.251-72.359-.252v34.333ZM34.025 149.025c.002 11.802.293 31.058.648 42.791l.644 21.331h14.456c17.954 0 33.704-1.538 38.193-3.728 4.5-2.196 9.461-8.896 11.267-15.216 2.127-7.446 3.78-26.488 3.062-35.275-.861-10.528-3.743-17.697-9.381-23.332-6.142-6.14-9.91-6.905-37.06-7.528l-21.83-.501.001 21.458ZM48.74 303.927c-16.253 3.503-31.877 15.761-39.924 31.326-7.33 14.175-7.17 12.358-7.17 81.688 0 60.124.056 61.97 2.074 68.512 5.636 18.27 15.71 30.246 32.63 38.782 15.376 7.76 39.005 7.604 55.351-.364 8.924-4.35 21.014-16.401 25.893-25.81 6.495-12.52 6.944-15.058 7.433-41.927l.44-24.273-3.435-3.433-3.435-3.434H96.82c-24.745 0-26.033.324-29.459 7.399-2.477 5.115-2.467 10.284.03 15.177 2.92 5.719 5.919 6.847 18.215 6.847h10.471l-.437 11.524c-.382 10.05-.773 12.175-3.05 16.612-3.79 7.381-11.266 14.466-17.419 16.509-6.502 2.158-20.288 1.666-25.67-.918-6.512-3.126-12.66-9.408-15.643-15.982l-2.778-6.125v-59.603l.002-59.604 2.825-5.884c3.405-7.092 9.812-13.776 15.815-16.5 5.54-2.514 19.627-3.423 25.093-1.62 9.44 3.115 17.808 15.886 20.523 31.328 2.253 12.804 6.511 17.686 15.428 17.686 5.961 0 10.875-3.535 13.133-9.449 1.672-4.375 1.677-5.07.101-14.304-4.802-28.133-21.675-48.929-43.955-54.179-7.749-1.826-22.782-1.817-31.305.019Zm132.356 3.506c-7.285 4.223-6.77-4.06-6.766 108.885.003 100.012.029 101.402 1.987 104.613 1.202 1.97 3.704 4.014 6.341 5.18 4.138 1.829 6.409 1.912 45.578 1.65l41.224-.277 2.915-2.942c6.176-6.235 6.2-17.065.052-23.212l-2.78-2.778h-63.925V435.935l18.573-.321c20.315-.352 21.158-.581 26.008-7.075 2.914-3.901 2.785-11.794-.262-16.065-4.259-5.97-6.547-6.57-26.413-6.928l-17.906-.324v-71.44h28.736c27.855 0 28.869-.068 33.09-2.207 5.252-2.66 8.086-7.162 8.008-12.724-.062-4.594-2.187-8.008-7.031-11.304-3.235-2.201-3.348-2.207-43.571-2.185-39.088.022-40.435.086-43.858 2.071Zm138.651 1.399c-3.57 2.498-5.364 7.114-5.364 13.791 0 7.358 2.615 12.387 7.286 14.015 1.765.615 10.479 1.067 20.562 1.067h17.5l.26 92.612c.258 91.822.278 92.634 2.286 95.379 6.282 8.588 22.878 8.55 29.314-.067 1.999-2.676 2.022-3.587 2.284-95.312l.264-92.612h18.163c20.8 0 23.667-.672 26.271-6.157 2.069-4.361 2.166-14.502.175-18.351-3.187-6.159-.448-5.896-61.327-5.896-48.694 0-55.756.188-57.674 1.531Z" clip-rule="evenodd"/></g><defs><clipPath id="a"><path fill="#fff" d="M.665.32h673.059v541.386H.665z"/></clipPath></defs></svg>