<svg width="728" height="750" viewBox="0 0 728 750" fill="none" xmlns="http://www.w3.org/2000/svg">
<g clip-path="url(#clip0_108_533)">
<path fill-rule="evenodd" clip-rule="evenodd" d="M509.419 1.66395C505.32 2.54795 502.095 5.48131 464.869 42.2034C438.073 68.6368 424.129 83.0836 422.905 85.684C420.661 90.4476 420.51 97.6589 422.551 102.509C423.589 104.976 438.517 120.473 469.447 151.188C494.402 175.97 516.486 197.392 518.521 198.793C522.582 201.589 529.453 202.708 535.636 201.582C538.925 200.982 544.298 196.032 580.416 160.329C619.413 121.78 621.533 119.502 622.977 114.595C624.244 110.294 624.3 108.585 623.313 104.373C622.157 99.4366 620.984 98.1739 574.858 52.2662C548.86 26.3897 526.041 4.43472 524.151 3.47576C519.487 1.11193 514.705 0.523896 509.419 1.66395ZM478.972 59.3986L444.115 93.9632L487.077 136.552L530.04 179.14L564.907 144.587C584.084 125.583 599.775 109.584 599.775 109.036C599.775 107.754 581.887 90.065 580.592 90.065C580.054 90.065 573.433 96.2287 565.878 103.762C558.323 111.295 550.948 118.085 549.49 118.853C546.088 120.64 539.535 120.64 536.133 118.853C532.965 117.188 507.153 91.4689 505.597 88.4255C504.196 85.6888 504.196 78.8641 505.596 76.1274C506.194 74.9582 513.301 67.3886 521.389 59.308L536.095 44.6139L525.619 34.9688C519.858 29.6628 514.848 25.2126 514.488 25.0783C514.126 24.943 498.144 40.3877 478.972 59.3986ZM539.369 72.5456L529.58 82.2862L536.198 88.8451L542.814 95.4051L552.862 85.4445L562.91 75.4839L556.572 69.144C553.086 65.6576 549.992 62.8051 549.696 62.8051C549.4 62.8051 544.753 67.1881 539.369 72.5456ZM273.218 125.017C271.597 125.422 269.078 126.377 267.62 127.14C262.999 129.553 170.657 218.517 168.576 222.559C166.033 227.501 166.018 235.929 168.546 240.764C169.584 242.75 176.25 250.4 183.359 257.762L196.284 271.149H152.253L108.221 271.148L98.0834 229.529C84.9239 175.503 85.3924 177.115 81.7684 173.307C76.9294 168.22 73.7041 167.809 41.1329 168.141C15.6763 168.399 11.5769 168.652 8.85834 170.127C3.97816 172.774 1.28223 177.256 1.28223 182.727C1.28223 188.146 3.46254 191.702 8.63834 194.724C11.6908 196.506 14.2512 196.712 38.9634 197.158L65.9542 197.644L78.0009 246.81C112.516 387.682 142.104 510.039 142.104 511.898C142.104 512.205 139.562 513.181 136.457 514.068C98.8121 524.818 80.471 561.609 97.2025 592.809C103.258 604.101 117.599 616.664 129.934 621.484C132.672 622.553 138.502 623.949 142.889 624.585L150.867 625.741L143.785 630.324C130.574 638.873 120.121 653.379 116.024 668.852C114.002 676.487 114.018 692.349 116.057 700.006C122.107 722.726 139.096 739.939 162.293 746.854C170.13 749.189 187.425 749.258 195.831 746.987C219.394 740.62 237.339 722.202 242.912 698.665C244.988 689.9 244.269 673.146 241.446 664.471C235.928 647.512 221.415 631.586 205.804 625.355C202.909 624.199 200.118 622.887 199.603 622.439C199.086 621.99 239.304 621.735 288.976 621.872L379.287 622.121L379.778 678.101C380.215 727.861 380.451 734.405 381.901 737.002C383.954 740.677 388.103 744.524 392.546 746.87C395.859 748.619 401.673 748.685 552.633 748.685C678.091 748.685 709.992 748.435 712.855 747.428C714.821 746.737 718.077 744.584 720.093 742.644C727.258 735.745 726.927 739.061 727.246 670.999C727.425 633.084 727.161 607.862 726.551 604.593C725.215 597.433 721.564 592.306 715.377 588.907L710.264 586.099L678.59 585.783L646.917 585.469V528.233C646.917 494.606 646.516 468.904 645.946 465.924C644.679 459.302 640.732 453.941 634.64 450.57L629.729 447.852L601.002 447.542C583.072 447.349 572.275 446.874 572.275 446.278C572.275 445.029 578.978 417.286 596.475 346.114C606.151 306.75 610.553 287.159 610.211 284.982C609.449 280.145 605.914 275.208 601.679 273.066C597.963 271.187 595.214 271.149 462.071 271.128L326.253 271.106L347.051 251.149C365.594 233.356 368.028 230.654 369.508 226.237C371.411 220.561 371.025 215.344 368.331 210.308C365.388 204.806 291.54 129.298 286.968 127.115C282.139 124.81 277.112 124.043 273.218 125.017ZM267.467 158.818L257.786 168.114L260.592 171.195C262.135 172.889 268.552 179.564 274.851 186.029C293.062 204.716 292.96 206.822 272.897 226.176C265.511 233.3 258.142 239.98 256.522 241.019C253.001 243.277 246.287 243.508 242.383 241.508C240.874 240.734 233.445 233.742 225.876 225.971L212.114 211.843L201.571 221.781L191.027 231.719L210.024 251.366L229.022 271.012L260.45 271.07L291.878 271.129L318.396 245.874C332.98 231.984 344.913 220.165 344.913 219.61C344.913 218.649 278.665 149.683 277.637 149.574C277.367 149.545 272.791 153.705 267.467 158.818ZM236.336 191.749L229.901 197.965L239.454 208.028L249.008 218.089L255.704 211.516L262.4 204.943L252.585 195.238L242.772 185.532L236.336 191.749ZM591.918 289.041C591.918 289.243 592.691 290.01 593.636 290.745C595.194 291.955 595.228 291.921 594.007 290.377C592.724 288.755 591.918 288.24 591.918 289.041ZM114.644 296.218C114.666 297.155 115.936 302.96 117.468 309.118L120.253 320.314H349.434H578.615L581.311 309.118C582.793 302.96 584.018 297.155 584.033 296.218C584.06 294.6 572.239 294.515 349.333 294.515C126.422 294.515 114.607 294.6 114.644 296.218ZM126.39 344.946C126.39 345.576 147.442 432.964 163.84 500.401L167.148 514.008L312.502 513.695C392.447 513.523 458.187 513.179 458.593 512.931C458.999 512.683 459.34 501.662 459.352 488.441C459.371 467.297 459.589 463.932 461.162 460.499C463.068 456.343 468.673 450.885 472.944 449.029C474.702 448.265 487.12 447.795 511.538 447.569L547.542 447.237L549.107 440.729C549.968 437.15 555.533 414.306 561.474 389.963C567.414 365.621 572.275 345.358 572.275 344.936C572.275 344.512 471.951 344.167 349.333 344.167C226.714 344.167 126.39 344.518 126.39 344.946ZM482.902 528.658V585.612H552.633H622.363V528.658V471.704H605.667H588.971V494.864C588.971 516.947 588.868 518.224 586.761 522.359C583.99 527.797 579.528 530.783 572.963 531.595C570.154 531.942 559.458 532.081 549.195 531.903C527.366 531.524 524.413 530.64 520.507 523.318C518.342 519.259 518.258 518.226 518.258 495.404V471.704H500.58H482.902V528.658ZM541.829 491.176V507.726H553.615H565.4V491.176V474.625H553.615H541.829V491.176ZM201.523 537.964C143.804 538.625 141.33 538.818 133.756 543.224C115.152 554.045 112.047 574.834 126.982 588.577C129.627 591.012 134.002 594.079 136.703 595.392L141.613 597.782L261.328 598.037L381.043 598.292L384.445 594.352C386.316 592.185 389.677 589.446 391.915 588.263C395.826 586.197 397.209 586.101 427.657 585.781L459.331 585.448V561.191V536.933L357.926 537.133C302.153 537.243 231.772 537.617 201.523 537.964ZM403.349 667.392V724.832H472.589H541.829V667.392V609.951H524.642H507.455V631.225C507.455 653.962 506.938 657.284 502.696 661.815C498.677 666.11 495.223 666.577 469.958 666.241C443.524 665.889 443.152 665.785 438.952 657.637C436.856 653.57 436.742 652.233 436.742 631.65V609.951H420.046H403.349V667.392ZM460.313 626.502V643.052H472.098H483.884V626.502V609.951H472.098H460.313V626.502ZM565.4 667.392V724.832H634.149H702.898V667.392V609.951H685.219H667.541V633.659C667.541 656.644 667.473 657.466 665.331 660.586C664.116 662.356 661.874 664.721 660.349 665.842C657.706 667.782 656.402 667.879 632.676 667.879C608.95 667.879 607.645 667.782 605.002 665.842C603.477 664.721 601.235 662.356 600.02 660.586C597.878 657.466 597.81 656.644 597.81 633.659V609.951H581.605H565.4V667.392ZM621.381 627.962V645H632.676H643.97V627.962V610.925H632.676H621.381V627.962ZM168.725 644.594C156.592 647.828 147.328 655.595 141.795 667.175C138.869 673.297 138.667 674.411 138.667 684.429C138.667 694.464 138.865 695.554 141.818 701.733C151.81 722.643 176.162 731.308 197.049 721.385C205.854 717.202 212.482 710.685 216.824 701.942C220.032 695.484 220.183 694.696 220.183 684.45C220.183 674.448 219.976 673.291 217.129 667.392C208.134 648.761 188.242 639.391 168.725 644.594Z" fill="black"/>
</g>
<defs>
<clipPath id="clip0_108_533">
<rect width="726.773" height="748.675" fill="white" transform="translate(0.677734 0.49707)"/>
</clipPath>
</defs>
</svg>
