<svg width="512" height="512" viewBox="0 0 512 512" fill="none" xmlns="http://www.w3.org/2000/svg">
<g clip-path="url(#clip0_41_181)">
<path fill-rule="evenodd" clip-rule="evenodd" d="M328.656 1.97507C316.854 5.74507 307.656 13.9871 302.325 25.5701C298.718 33.4051 297.88 47.0501 300.508 55.1461C304.827 68.4501 314.255 78.0971 327.714 82.9851C336.519 86.1831 349.875 85.6131 358.43 81.6751C385.749 69.1011 392.616 34.1351 371.9 13.0901C360.376 1.38307 343.824 -2.87093 328.656 1.97507ZM474.739 1.08607C473.302 1.92307 327.393 188.682 321.698 196.973C318.676 201.373 319.834 207.556 324.367 211.228C327.523 213.784 334.289 213.536 337.403 210.75C338.786 209.512 373.676 165.075 414.938 112C466.619 45.5221 490.154 14.4971 490.586 12.2751C491.339 8.40407 488.64 3.13707 484.945 1.26707C481.99 -0.228933 477.145 -0.314933 474.739 1.08607ZM339 21.7831C328.205 23.2001 319.968 32.6281 320.028 43.5001C320.046 46.8671 323.228 54.4881 325.805 57.3381C330.281 62.2881 339.948 64.8991 346.883 63.0321C352.199 61.6001 359.488 55.0811 361.045 50.3651C364.423 40.1281 360.305 28.8551 351.5 24.2361C347.981 22.3901 342.529 21.3201 339 21.7831ZM22.5 42.6851C6.33699 43.0251 3.72099 43.7051 1.41499 48.1651C-0.847008 52.5381 -0.343008 56.5841 2.91499 60.2341L5.82999 63.5001L28.665 64.0001C50.689 64.4821 51.695 64.5931 57 67.1091C64.024 70.4421 69.668 76.0041 72.549 82.4331C74.07 85.8261 83.109 129.17 99.91 213.634C113.709 283.008 125 340.002 125 340.289C125 340.575 116.788 340.968 106.75 341.163C89.544 341.496 88.186 341.665 83 344.121C58.152 355.889 57.829 390.489 82.46 402.141L88.5 404.998L275.827 404.999L463.154 405L466.077 402.077C471.116 397.038 469.708 388.386 463.316 385.117C461.73 384.306 410.722 383.999 277.316 383.996C96.572 383.993 93.446 383.96 90.288 382.034C84.579 378.553 84.193 369.923 89.538 365.25L92.112 363H254.588C433.911 363 422.684 363.408 425.439 356.786C427.058 352.893 447.004 253.791 447.001 249.65C446.999 245.644 441.236 240 437.147 240C433.057 240 429.368 241.79 427.461 244.7C426.599 246.015 421.877 267.208 416.967 291.796C412.056 316.383 407.796 337.514 407.499 338.754L406.96 341.007L277.279 340.754L147.598 340.5L128.848 247C118.535 195.575 110.076 152.488 110.049 151.25L110 149L214.25 148.978C311.515 148.957 318.643 148.84 320.633 147.228C326.114 142.788 326.51 136.31 321.6 131.4L318.2 128H211.619H105.038L104.512 125.75C104.223 124.513 101.992 113.631 99.556 101.57C95.951 83.7211 94.431 78.2311 91.393 72.0701C86.554 62.2591 77.931 53.4921 68.462 48.7581C57.081 43.0681 49.823 42.1091 22.5 42.6851ZM456.656 129.975C444.854 133.745 435.656 141.987 430.325 153.57C426.718 161.405 425.88 175.05 428.508 183.146C432.827 196.45 442.255 206.097 455.714 210.985C464.519 214.183 477.875 213.613 486.43 209.675C513.749 197.101 520.616 162.135 499.9 141.09C488.376 129.383 471.824 125.129 456.656 129.975ZM467 149.783C456.205 151.2 447.968 160.628 448.028 171.5C448.046 174.867 451.228 182.488 453.805 185.338C458.281 190.288 467.948 192.899 474.883 191.032C480.199 189.6 487.488 183.081 489.045 178.365C492.423 168.128 488.305 156.855 479.5 152.236C475.981 150.39 470.529 149.32 467 149.783ZM158.5 428.399C144.618 432.789 134.235 443.147 129.975 456.855C119.884 489.328 150.653 520.073 183.187 510.024C195.214 506.309 203.72 498.82 209.337 487C213.311 478.638 214.259 465.378 211.492 456.854C207.214 443.675 197.177 433.361 184.327 428.94C177.756 426.68 164.795 426.408 158.5 428.399ZM350.5 428.399C336.618 432.789 326.235 443.147 321.975 456.855C311.884 489.328 342.653 520.073 375.187 510.024C387.214 506.309 395.72 498.82 401.337 487C405.311 478.638 406.259 465.378 403.492 456.854C399.214 443.675 389.177 433.361 376.327 428.94C369.756 426.68 356.795 426.408 350.5 428.399ZM163.625 449.469C146.109 455.713 144.982 479.931 161.812 488.441C165.68 490.397 173.414 490.679 178.365 489.045C180.276 488.414 183.647 485.937 185.857 483.54C192.369 476.475 193.51 467.839 189.08 459.158C186.719 454.533 184.596 452.624 178.982 450.077C173.774 447.715 169.069 447.529 163.625 449.469ZM355.625 449.469C338.109 455.713 336.982 479.931 353.812 488.441C357.68 490.397 365.414 490.679 370.365 489.045C372.276 488.414 375.647 485.937 377.857 483.54C384.369 476.475 385.51 467.839 381.08 459.158C378.719 454.533 376.596 452.624 370.982 450.077C365.774 447.715 361.069 447.529 355.625 449.469Z" fill="black"/>
</g>
<defs>
<clipPath id="clip0_41_181">
<rect width="512" height="512" fill="white"/>
</clipPath>
</defs>
</svg>
