<svg width="654" height="653" viewBox="0 0 654 653" fill="none" xmlns="http://www.w3.org/2000/svg">
<g clip-path="url(#clip0_108_523)">
<path fill-rule="evenodd" clip-rule="evenodd" d="M203.027 3.62101C193.578 5.64745 187.94 7.93008 180.264 12.8382C161.96 24.5413 148.687 45.7331 145.181 68.8551C142.404 87.1614 149.214 111.869 161.505 128.086C171.802 141.67 193.147 156.675 218.252 167.975L227.57 172.17L122.068 172.428C21.1927 172.673 16.419 172.764 13.1937 174.483C8.47777 176.998 5.59847 179.803 3.46406 183.963C1.72569 187.351 1.63126 190.315 1.65149 240.788C1.67076 290.369 1.79411 294.309 3.4419 297.932C6.78854 305.297 15.4573 309.932 25.8846 309.932H30.5167L30.7692 474.545L31.0207 639.158L33.9173 643.334C35.8147 646.07 38.6178 648.425 42.0406 650.159L47.2663 652.808H326.115C535.496 652.808 606.079 652.528 609.434 651.683C615.048 650.27 621.28 644.296 622.943 638.731C623.86 635.662 624.128 598.072 624.128 472.349V309.932L628.705 309.909C640.432 309.848 648.063 305.866 651.708 297.908L654.063 292.767L653.79 239.396L653.519 186.026L650.89 182.057C649.444 179.875 646.192 176.873 643.663 175.387L639.064 172.685L535.485 172.423L431.905 172.161L445.386 165.528C468.639 154.088 487.296 140.113 496.58 127.182C502.035 119.584 506.575 109.53 509.662 98.2105C512.29 88.5772 512.579 70.4279 510.241 61.9244C503.674 38.0367 489.851 20.1494 470.431 10.4063C458.442 4.39152 452.576 3.18664 435.259 3.18182C418.736 3.17797 410.98 4.74114 398.878 10.5132C374.29 22.2423 351.996 52.2295 333.307 98.7142L328.583 110.463L324.939 101.122C312.128 68.284 292.916 36.6084 277.485 22.877C257.428 5.03008 229.784 -2.11831 203.027 3.62101ZM210.736 25.5092C192.576 28.5469 177.27 42.3063 170.555 61.6278C164.151 80.0496 170.05 104.757 184.162 118.63C198.826 133.045 221.118 145.268 257.075 158.612C283.378 168.372 291.759 170.614 302.239 170.695C313.069 170.78 313.145 170.646 312.543 152.459C311.877 132.307 307.087 115.951 293.586 87.7287C271.927 42.4546 251.321 24.5615 221.335 24.9891C216.83 25.0537 212.061 25.2877 210.736 25.5092ZM420.724 27.2727C403.746 31.393 390.696 42.1609 376.703 63.5974C367.067 78.3555 353.716 107.279 349.034 123.536C343.967 141.125 342.175 161.84 345.111 168.863C346.496 172.174 346.56 172.203 352.579 172.197C363.271 172.185 384.214 165.931 414.539 153.696C467.918 132.159 488.711 111.153 488.698 78.7793C488.695 71.7965 488.178 68.1183 486.511 63.2487C480.211 44.8451 466.211 31.1985 449.624 27.2901C442.089 25.515 428.003 25.5063 420.724 27.2727ZM24.7571 240.586V285.853H142.319H259.88V240.586V195.319H142.319H24.7571V240.586ZM283.007 240.586V285.853H327.334H371.66V240.586V195.319H327.334H283.007V240.586ZM395.75 240.586V285.853H513.312H630.874V240.586V195.319H513.312H395.75V240.586ZM53.6657 469.812V629.693H156.773H259.88V469.812V309.932H156.773H53.6657V469.812ZM283.007 469.812V629.693H327.334H371.66V469.812V309.932H327.334H283.007V469.812ZM395.75 469.812V629.693H498.376H601.001V469.812V309.932H498.376H395.75V469.812Z" fill="black"/>
</g>
<defs>
<clipPath id="clip0_108_523">
<rect width="653.334" height="652.042" fill="white" transform="translate(0.666992 0.765137)"/>
</clipPath>
</defs>
</svg>
