<svg width="825" height="546" viewBox="0 0 825 546" fill="none" xmlns="http://www.w3.org/2000/svg">
<path fill-rule="evenodd" clip-rule="evenodd" d="M360.057 3.57953C359.436 3.97635 351.704 23.3076 342.873 46.5373C334.043 69.767 326.557 89.0786 326.238 89.4508C325.92 89.8241 318.54 71.702 309.839 49.1795C290.967 0.327375 293.309 2.96957 280.879 16.5066C276.403 21.3814 272.352 26.7189 271.877 28.3661C270.808 32.074 270.022 29.8109 292.487 87.67L310.363 133.713L310.387 179.999C310.4 205.457 310.82 228.053 311.321 230.214C311.866 232.562 313.45 235.229 315.261 236.844C317.91 239.207 319.095 239.545 324.736 239.545C332.923 239.545 336.289 237.852 338.365 232.687C339.761 229.217 339.968 223.023 339.968 184.829V140.958L361.287 85.1123C379.256 38.044 382.506 28.7393 381.972 25.9066C381.377 22.7497 373.565 13.0767 365.515 5.52926C362.452 2.65722 361.84 2.43917 360.057 3.57953ZM144.651 8.79713C142.74 10.7007 141.386 13.2476 140.996 15.6727C140.656 17.7924 139.934 19.526 139.394 19.526C137.973 19.526 139.12 176.95 140.64 190.396C143.524 215.918 151.735 230.566 167.273 237.912C173.112 240.672 174.764 240.98 185.69 241.343C205.336 241.995 215.119 239.413 224.368 231.135C229.748 226.321 234.232 218.535 237.217 208.829C241.278 195.612 241.734 184.61 241.757 99.0865L241.779 18.0527L239.544 13.5383C234.667 3.6866 223.726 5.00671 220.578 15.826C219.686 18.8925 219.143 41.6301 218.556 100.56C217.609 195.567 216.972 203.45 209.513 212.457C205.905 216.814 199.732 218.264 186.802 217.794L177.233 217.445L173.208 213.532C168.248 208.708 165.765 201.382 164.273 187.175C163.677 181.498 163.012 143.624 162.735 99.5776C162.31 31.7832 162.045 21.2989 160.644 16.5813C157.558 6.18538 150.653 2.8242 144.651 8.79713ZM668.581 11.3666C667.767 11.6554 654.55 16.5341 639.211 22.2075L611.323 32.5238L607.077 28.6293C598.519 20.7774 587.341 15.7739 576.343 14.8722C566.351 14.053 432.067 13.389 426.978 14.1336C421.584 14.9223 415.74 19.9582 414.171 25.1689C413.463 27.5233 412.805 43.1761 412.403 67.1955C411.707 108.868 412.343 118.595 416.105 123.852C419.972 129.26 421.858 129.536 454.902 129.536H485.031L485.037 329.665C485.04 462.632 485.38 531.004 486.049 533.399C487.404 538.253 491.704 542.621 496.437 543.946C502.237 545.571 537.739 546.349 554.304 545.213C571.196 544.055 575.521 542.397 579.128 535.695L581.247 531.758L581.533 352.32L581.819 172.882L589.921 181.394C636.411 230.24 705.447 300.021 709.238 302C712.84 303.879 717.491 303.749 721.074 301.671C723.72 300.136 777.969 230.564 796.323 205.167C806.927 190.495 808.197 186.274 804.283 178.723C803.155 176.547 803.64 175.371 809.968 164.971C824.215 141.552 826.05 135.206 820.664 127.964C813.686 118.58 789.914 98.6209 715.756 39.8817C677.689 9.72828 679.035 10.6693 674.107 10.7635C671.882 10.8058 669.395 11.0779 668.581 11.3666ZM20.7297 13.0551C19.1014 13.7751 16.7853 15.4281 15.5824 16.7276C10.5417 22.1741 10.6621 19.638 10.2545 128.553C9.87754 229.346 9.89135 230.243 11.8818 233.652C15.8054 240.372 17.5452 240.707 45.8937 240.192C73.2643 239.695 81.3198 238.57 88.8187 234.196C98.1857 228.732 106.827 215.504 109.564 202.441C111.576 192.836 113.199 169.611 112.462 160.967C110.996 143.761 105.835 130.653 96.7676 121.11L91.3677 115.427L95.2193 111.268C100.101 105.996 104.477 97.3892 107.256 87.5934C108.961 81.5851 109.423 77.391 109.398 68.1463C109.341 47.1472 104.736 33.7575 93.8288 22.8764C84.4017 13.4725 76.4498 11.6957 43.9201 11.7261C29.2351 11.7399 22.879 12.1043 20.7297 13.0551ZM639.456 36.1384C621.01 43.016 604.918 49.1795 603.697 49.8346C602.319 50.5742 601.477 51.9444 601.477 53.4473C601.477 54.7792 601.643 55.8684 601.846 55.8684C602.049 55.8684 610.376 53.9158 620.349 51.5299C637.363 47.4586 653.917 44.0159 663.289 42.5995C672.487 41.2087 671.518 40.4052 717.833 87.8242C756.001 126.901 760.72 131.412 761.788 129.832C762.446 128.859 766 123.046 769.686 116.915C776.218 106.051 776.342 105.722 774.54 103.983C771.829 101.365 676.251 25.3683 674.49 24.4303C673.504 23.9058 661.546 27.9024 639.456 36.1384ZM580.816 48.2807C580.854 60.2767 581.212 67.3242 581.721 66.0718C582.184 64.9315 583.8 63.0289 585.313 61.8443C587.767 59.9231 588.073 59.0371 588.161 53.6054C588.275 46.5157 590.224 42.2007 594.54 39.481L597.545 37.5872L594.824 35.5845C591.8 33.3597 586.996 30.7774 583.228 29.3512L580.754 28.4152L580.816 48.2807ZM34.0518 70.1107V104.98L38.7392 104.964C48.8651 104.93 65.5928 103.058 69.2144 101.554C77.6044 98.0709 83.3487 88.8909 85.4092 75.6731C87.5023 62.246 83.6694 45.4274 77.1219 39.3042C74.0074 36.3928 66.0733 35.2868 48.1141 35.2613L34.0518 35.2417V70.1107ZM436.341 59.4654C435.983 71.7069 435.69 87.177 435.69 93.8433V105.962H466.824C500.449 105.962 501.732 106.14 505.113 111.278C506.007 112.636 507.175 116.747 507.708 120.414C508.315 124.594 508.684 200.553 508.696 324.136L508.715 521.191L518.613 521.889C524.057 522.275 534.889 522.274 542.685 521.889L556.86 521.191L557.595 499.954C557.999 488.274 558.106 392.004 557.832 286.021L557.334 93.3237L553.87 88.5933C549.682 82.8758 546.126 75.9029 543.689 68.6374C541.709 62.7322 541.121 47.4046 542.624 40.8895L543.474 37.2061H490.233H436.992L436.341 59.4654ZM555.393 44.8184C554.411 49.4594 554.714 59.3662 555.955 63.2352C556.67 65.4638 556.921 63.1301 556.985 53.6584C557.031 46.7701 556.867 41.135 556.621 41.135C556.374 41.135 555.821 42.793 555.393 44.8184ZM646.95 58.8534C626.466 63.2037 596.709 70.7561 594.921 72.0565C593.641 72.9887 593.212 75.6613 592.819 85.1742L592.324 97.122L594.681 97.1004C595.976 97.0886 598.854 96.2567 601.076 95.2528C604.76 93.587 605.077 93.1558 604.664 90.3613C604.055 86.2232 606.642 82.3886 610.045 82.3886C612.827 82.3886 620.571 89.7072 622.257 93.9298C623.865 97.9608 619.884 103.649 616.022 102.841C615.349 102.7 612.727 103.807 610.195 105.3C604.743 108.516 600.333 109.891 595.47 109.891H591.917L591.269 124.781C590.913 132.969 590.622 144.875 590.622 151.236V162.802L601.656 174.408C630.566 204.818 680.934 256.236 681.591 256.007C682.978 255.526 760.441 151.89 760.123 150.941C759.949 150.421 739.183 128.817 713.976 102.932L668.145 55.8684L664.169 55.9539C661.982 56.001 654.234 57.3054 646.95 58.8534ZM671.564 99.5501C670.611 100.693 670.912 113.515 672.997 160.694C674.449 193.528 675.837 221.401 676.084 222.636C676.716 225.811 680.917 227.22 685.604 225.83C689.262 224.745 689.305 224.675 689.319 219.616C689.364 204.991 683.989 100.392 683.14 99.332C681.743 97.5905 673.061 97.7546 671.564 99.5501ZM778.199 128.228C770.189 141.538 770.135 141.67 772.043 143.569C773.95 145.467 774.039 145.362 782.37 131.416C789.939 118.746 790.611 117.224 789.134 116.107C788.232 115.424 787.22 114.85 786.886 114.834C786.551 114.816 782.642 120.844 778.199 128.228ZM798.599 130.137C797.271 132.237 793.414 138.691 790.025 144.479L783.865 155.004L788.549 160.403C791.125 163.372 793.567 165.597 793.975 165.346C794.823 164.824 805.387 146.935 808.68 140.444L810.87 136.128L805.941 131.223L801.013 126.317L798.599 130.137ZM34.0518 174.081V216.954H46.1661C60.7465 216.954 74.1693 215.42 77.2876 213.397C80.7978 211.12 85.1546 203.547 86.4059 197.551C88.049 189.674 89.0378 168.081 88.1674 159.115C86.9161 146.237 80.8905 135.539 73.7084 133.443C71.7081 132.859 61.9672 132.118 52.0614 131.795L34.0518 131.207V174.081ZM705.967 137.767C696.552 141.115 691.773 148.288 691.818 159.002C691.873 172.094 700.878 181.366 712.597 180.398C725.89 179.301 733.816 165.609 729.7 150.856C728.285 145.784 721.412 138.861 716.442 137.501C711.526 136.157 710.412 136.185 705.967 137.767ZM641.443 143.127C633.39 146.956 629.093 154.113 629.13 163.637C629.216 186.096 655.544 193.671 665.939 174.227C669.182 168.162 668.881 157.924 665.281 151.809C660.066 142.95 649.73 139.186 641.443 143.127ZM707.106 152.312C703.537 156.125 704.688 164.541 709.101 166.892C715.725 170.421 720.89 158.104 715.345 152.005C713.107 149.544 709.574 149.675 707.106 152.312ZM643.983 157.662C640.958 161.487 641.293 166.371 644.821 169.883C648.331 173.375 649.24 173.431 652.343 170.342C655.223 167.476 655.679 160.738 653.229 157.257C651.051 154.161 646.594 154.356 643.983 157.662ZM730.683 213.448L690.95 266.175L693.06 268.275C694.221 269.431 695.339 270.18 695.545 269.939C696.203 269.172 745.591 203.413 760.29 183.732L774.466 164.752L772.441 162.737L770.416 160.721L730.683 213.448ZM746.54 224.009C726.187 251.077 708.45 274.728 707.125 276.565L704.714 279.907L709.864 285.018C713.031 288.161 715.29 289.725 715.728 289.079C716.121 288.5 729.764 270.671 746.047 249.458C781.674 203.042 792.921 187.779 792.921 185.848C792.921 185.048 790.811 182.234 788.234 179.594L783.546 174.794L746.54 224.009ZM46.3871 307.358C26.5894 312.085 12.3426 326.003 5.00558 347.785C2.14181 356.289 0.360584 373.128 2.32535 373.128C3.16218 373.128 3.46021 383.71 3.46021 413.399C3.46021 442.458 3.15232 453.671 2.35595 453.671C0.610251 453.671 1.88622 483.223 3.94671 490.504C7.39172 502.681 11.7979 510.343 19.9728 518.375C31.8019 529.996 41.7264 534.214 57.2422 534.214C72.0308 534.214 82.7359 529.933 92.8371 519.98C99.8929 513.028 105.213 504.372 108.783 494.036C111.037 487.51 111.415 484.567 111.804 470.524C112.088 460.215 111.87 453.714 111.192 452.353C110.612 451.187 109.998 446.544 109.829 442.034C109.544 434.458 109.311 433.657 106.763 431.475C104.064 429.165 103.617 429.115 85.5316 429.115C64.6395 429.115 63.8096 429.357 60.6113 436.367C57.2413 443.753 58.7353 452.202 64.1638 456.452C66.4365 458.232 68.1743 458.582 74.7436 458.582H82.6047L82.2534 471.105C81.8527 485.398 80.2827 489.957 73.0709 497.771C68.1792 503.071 64.376 504.747 57.2422 504.747C50.2249 504.747 46.245 503.055 40.7247 497.727C33.8288 491.072 31.7959 484.691 31.3035 468.159C31.0825 460.731 30.5002 454.653 30.0098 454.653C29.4927 454.653 29.1177 437.528 29.1177 413.891C29.1177 391.471 29.5026 373.128 29.9723 373.128C30.442 373.128 31.0558 370.144 31.3361 366.498C32.318 353.722 39.4103 341.678 48.3223 337.648C53.1331 335.473 62.656 335.232 66.4197 337.189C73.3857 340.812 79.9896 352.733 81.7442 364.853C82.3797 369.246 83.2658 372.146 83.9734 372.146C84.6188 372.146 85.4536 373.771 85.8286 375.759C86.2322 377.905 87.8408 380.698 89.7868 382.635C95.8489 388.669 105.085 386.39 108.445 378.032C109.321 375.853 110.037 372.975 110.037 371.635C110.037 370.295 110.533 369.199 111.138 369.199C113.487 369.199 109.991 351.798 105.414 340.715C99.5297 326.461 90.6394 316.41 78.7432 310.558C71.9144 307.199 70.7785 306.952 60.8925 306.693C55.085 306.541 48.5582 306.84 46.3871 307.358ZM159.791 310.235C156.334 311.627 152.628 316.893 151.988 321.32C151.658 323.614 151.52 369.911 151.683 424.204L151.978 522.918L154.345 526.221C158.557 532.1 159.633 532.249 197.757 532.249H232.253L235.115 529.851C241.701 524.336 241.876 511.228 235.451 504.833C233.462 502.853 232.455 502.782 206.253 502.782H179.115V471.351V439.92L193.671 439.918C211.027 439.917 213.841 438.986 217.418 432.062C221.197 424.75 218.933 415.819 212.286 411.814C209.712 410.262 206.771 409.908 194.164 409.628L179.115 409.295V373.531V337.768H203.324C229.642 337.768 232.242 337.342 236.16 332.385C240.855 326.444 239.826 317.555 233.838 312.321L230.361 309.283L196.103 309.345C177.262 309.38 160.921 309.78 159.791 310.235ZM275.458 314.223C272.435 317.8 271.435 322.413 272.162 329.428C272.778 335.371 275.091 339.503 278.528 340.804C279.826 341.295 287.734 341.697 296.104 341.697H311.32L311.582 435.58L311.843 529.463L315.012 532.281C322.35 538.807 333.306 537.71 338.044 529.976C339.906 526.936 339.961 524.206 339.964 434.272L339.968 341.697H355.807C367.77 341.697 372.327 341.345 374.434 340.261C381.621 336.562 382.547 318.523 375.82 313.256C373.316 311.296 372.113 311.248 325.614 311.248H277.974L275.458 314.223Z" fill="black"/>
</svg>
