<svg width="512" height="512" viewBox="0 0 512 512" fill="none" xmlns="http://www.w3.org/2000/svg">
<path fill-rule="evenodd" clip-rule="evenodd" d="M203.112 1.52703C193.469 4.21603 185.981 8.92003 176.966 17.951C167.179 27.756 161.012 38.409 156.351 53.562C153.794 61.874 153.602 63.725 153.613 80C153.626 98.376 154.481 103.453 159.766 116.534L161.801 121.568L128.422 148.272C106.593 165.737 94.085 176.425 92.272 179.165L89.5 183.354V339.505V495.657L92.526 500.552C94.402 503.586 97.414 506.598 100.448 508.474L105.343 511.5L214.421 511.788C274.415 511.947 324.911 511.824 326.635 511.515C333.383 510.305 344 500.128 344 494.869C344 492.55 343.199 492.7 375.5 488.992C390.35 487.288 404.118 485.468 406.096 484.949C415.569 482.464 423 472.51 423 462.305C423 459.389 415.141 390.356 405.535 308.9C389.186 170.255 387.915 160.531 385.63 156.648C384.288 154.367 381.998 151.375 380.542 150C379.085 148.625 356.204 133.975 329.696 117.445L281.5 87.39L280.805 75.445C280.423 68.875 279.179 59.9 278.039 55.5C271.587 30.578 254.702 10.194 234.389 2.80403C226.71 0.0100257 210.869 -0.635974 203.112 1.52703ZM209.232 17.06C198.755 19.126 186.596 28.691 179.6 40.373C168.346 59.162 166.017 87.973 174.117 108.193L175.195 110.885L189.348 99.571C197.131 93.349 204.987 87.5 206.804 86.575C211.538 84.165 218.764 83.577 223.5 85.217L227.5 86.603L233.731 80.854C242.184 73.053 250.048 71.123 259.5 74.529C261.7 75.321 263.613 75.977 263.75 75.985C264.657 76.04 263.665 67.161 261.978 60.124C256.798 38.516 242.636 21.966 225.54 17.542C219.061 15.866 215.784 15.769 209.232 17.06ZM248.5 89.959C247.4 90.417 245.24 92.125 243.699 93.754L240.899 96.715L290.527 136.426C336.822 173.469 340.317 176.485 342.568 181.318L344.98 186.5L344.99 290.75L345 395L347.75 394.966C352.412 394.907 397.022 389.311 397.624 388.709C398.635 387.698 371.964 165.636 370.575 163.5C368.552 160.388 252.611 88.403 250.685 89.063C250.583 89.098 249.6 89.501 248.5 89.959ZM209.26 104.75C195.356 115.302 184.09 124.621 184.048 125.605C183.971 127.381 194.249 136.576 199.045 139.023C205.278 142.203 209 143.168 209 141.605C209 140.914 210.042 139.37 211.314 138.174C214.488 135.193 219.407 135.316 222.545 138.455C224.856 140.766 225 141.558 225 152C225 162.442 224.856 163.234 222.545 165.545C217.928 170.163 211.639 168.44 209.142 161.873C208.391 159.899 207.198 159.078 204.322 158.558C196.907 157.215 186.14 150.976 177.958 143.278L170.1 135.886L139.8 160.046C123.135 173.335 108.488 185.31 107.25 186.659L105 189.112V302.556V416H217H329L328.955 303.75C328.921 218.427 328.621 190.856 327.705 188.813C326.971 187.176 305.69 169.497 273.235 143.563C230.763 109.624 219.386 101 217.086 101C215.297 101 212.323 102.425 209.26 104.75ZM166.882 241.381C158.608 244.338 152.157 250.037 147.759 258.278C145.876 261.805 145.505 264.063 145.503 272C145.5 280.644 145.765 281.978 148.438 286.804C154.295 297.376 163.237 303.086 175 303.764C180.971 304.108 183.651 303.761 188.147 302.065C195.62 299.244 202.225 293.277 205.694 286.214C208.1 281.314 208.5 279.29 208.5 272C208.5 264.71 208.1 262.686 205.694 257.786C200.321 246.844 189.07 239.957 176.712 240.044C173.296 240.068 168.872 240.67 166.882 241.381ZM211.268 306.24C148.212 369.269 145 372.653 145 376.065C145 380.722 148.329 384 153.056 384C156.258 384 160.842 379.641 222.742 317.742C283.543 256.94 289 251.212 289 248.196C289 243.788 285.217 240 280.813 240C277.809 240 271.996 245.537 211.268 306.24ZM170 258.193C165.16 260.674 161 267.056 161 272C161 273.417 162.012 276.584 163.25 279.038C170.568 293.551 192.385 288.319 192.385 272.051C192.385 260.257 180.422 252.851 170 258.193ZM246.882 321.381C238.608 324.338 232.157 330.037 227.759 338.278C225.876 341.805 225.505 344.063 225.503 352C225.5 360.644 225.765 361.978 228.438 366.804C234.295 377.376 243.237 383.086 255 383.764C260.971 384.108 263.651 383.761 268.147 382.065C275.62 379.244 282.225 373.277 285.694 366.214C288.1 361.314 288.5 359.29 288.5 352C288.5 344.71 288.1 342.686 285.694 337.786C280.321 326.844 269.07 319.957 256.712 320.044C253.296 320.068 248.872 320.67 246.882 321.381ZM250 338.193C245.16 340.674 241 347.056 241 352C241 353.417 242.012 356.584 243.25 359.038C250.568 373.551 272.385 368.319 272.385 352.051C272.385 340.257 260.422 332.851 250 338.193ZM369.563 409.13C356.398 410.731 345.465 412.201 345.269 412.398C345.072 412.594 345.044 416.097 345.206 420.181L345.5 427.607L372.5 424.362C387.35 422.577 400.095 421.09 400.822 421.058C401.837 421.013 401.992 419.667 401.49 415.25C400.482 406.388 400.271 405.986 396.683 406.11C394.932 406.17 382.728 407.529 369.563 409.13ZM105 440V448H217H329V440V432H217H105V440ZM389.5 439.089C381.8 440.025 368.637 441.577 360.25 442.54L345 444.289V460.145C345 468.865 345.337 475.991 345.75 475.98C352.613 475.794 402.474 468.851 403.589 467.926C406.879 465.196 407.09 463.243 405.495 450.305C404.634 443.315 403.832 437.549 403.714 437.491C403.596 437.434 397.2 438.153 389.5 439.089ZM105 476.453C105 489.87 105.827 493.145 109.657 494.89C111.394 495.681 142.378 496 217.491 496H322.888L325.694 493.589C328.477 491.198 328.503 491.065 328.827 477.589L329.155 464H217.077H105V476.453Z" fill="black" fill-opacity="0.345"/>
<path fill-rule="evenodd" clip-rule="evenodd" d="M205.276 1.51102C188.092 5.24502 172.564 18.566 163.035 37.748C151.325 61.321 149.887 88.192 159 113.163C160.65 117.684 162 121.478 162 121.595C162 121.712 146.806 133.959 128.236 148.811C102.359 169.507 93.892 176.829 91.986 180.157L89.5 184.5L89.215 337.5C89.003 450.768 89.229 491.593 90.083 494.708C91.524 499.964 96.926 506.38 102.357 509.284L106.5 511.5H217H327.5L331.5 509.342C336.836 506.462 340.449 502.505 342.993 496.75C344.148 494.137 345.635 491.996 346.297 491.992C352.979 491.948 405.496 484.82 408.556 483.541C415.682 480.565 421.009 473.801 422.504 465.831C423.41 461.001 388.335 162.655 386.363 158.414C383.312 151.854 376.308 146.841 329.327 117.597L281.287 87.694L280.647 76.49C278.851 45.031 264.287 18.727 241.928 6.55802C235.792 3.21802 223.119 -0.0219775 216.59 0.0790225C213.791 0.123022 208.699 0.768022 205.276 1.51102ZM206.5 17.341C183.822 24.843 169 49.84 169 80.584C169 90.427 171.89 106.116 174.307 109.389C175.35 110.802 177.289 109.574 189.735 99.617C197.563 93.354 205.785 87.503 208.005 86.615C212.567 84.789 220.552 84.499 224.536 86.014C226.967 86.938 227.729 86.54 233.141 81.53C242.142 73.197 252.29 71.059 261.2 75.618C262.686 76.378 264.2 77 264.566 77C265.597 77 264.098 66.293 261.935 58.209C257.454 41.466 246.312 26.503 233.473 19.986C227.867 17.141 225.634 16.588 218.685 16.326C213.741 16.139 208.916 16.541 206.5 17.341ZM247.5 90.165C245.346 91.355 240.968 95.931 241.051 96.906C241.078 97.232 261.16 113.475 285.675 133C337.134 173.983 339.353 175.88 342.3 181.387L344.5 185.5L344.768 290.826L345.036 396.151L347.768 395.626C349.271 395.338 361.075 393.903 374 392.438C386.925 390.972 397.779 389.487 398.119 389.137C398.991 388.241 372.488 165.694 371.245 163.474C369.838 160.96 254.154 88.993 251.58 89.03C250.436 89.047 248.6 89.558 247.5 90.165ZM213.5 101.216C212.4 101.851 205.09 107.508 197.255 113.787L183.009 125.204L185.151 128.212C189.793 134.731 207.713 145.362 208.76 142.219C209.662 139.515 212.696 136.968 215.71 136.386C218.396 135.867 219.416 136.262 221.96 138.806C224.947 141.794 225 142.022 225 152C225 161.978 224.947 162.206 221.96 165.194C219.435 167.718 218.392 168.128 215.805 167.611C211.788 166.808 210.269 165.493 209.532 162.181C209.016 159.863 207.955 159.202 201.691 157.294C192.599 154.526 183.112 148.513 175.996 141.009L170.492 135.204L142.996 157.166C127.873 169.246 113.138 181.151 110.25 183.622L105 188.115V302.058V416H217H329V303.082C329 240.977 328.708 189.403 328.351 188.473C327.663 186.679 224.459 103.644 220.075 101.356C216.97 99.736 216.095 99.717 213.5 101.216ZM168.5 241.33C159.042 244.454 153.293 249.117 148.932 257.204C145.833 262.953 145.537 264.239 145.537 272C145.537 279.761 145.833 281.047 148.932 286.796C152.625 293.644 157.165 297.815 164.67 301.256C171.405 304.344 182.46 304.265 189.714 301.076C195.928 298.345 203.266 290.873 206.271 284.217C209.226 277.673 209.226 266.327 206.271 259.783C203.293 253.187 195.918 245.641 189.935 243.067C183.656 240.366 173.829 239.57 168.5 241.33ZM277.5 240.98C276.4 241.449 246.137 271.241 210.25 307.185C152.847 364.677 145 372.898 145 375.545C145 381.943 151.053 385.614 156.677 382.628C160.022 380.852 286.289 254.495 287.896 251.316C289.623 247.898 289.228 246.074 286.077 242.923C283.09 239.936 281.037 239.471 277.5 240.98ZM169.024 258.185C163.733 261.781 161 266.486 161 272C161 277.514 163.733 282.219 169.024 285.815C171.884 287.759 173.438 288.103 177.791 287.753C187.082 287.008 192.5 281.205 192.5 272C192.5 262.795 187.082 256.992 177.791 256.247C173.438 255.897 171.884 256.241 169.024 258.185ZM248.5 321.33C239.042 324.454 233.293 329.117 228.932 337.204C225.833 342.953 225.537 344.239 225.537 352C225.537 359.761 225.833 361.047 228.932 366.796C234.849 377.768 244.535 383.505 257 383.419C266.692 383.353 273.261 380.566 279.534 373.86C286.119 366.82 288.401 361.194 288.401 352C288.401 346.491 287.836 343.248 286.271 339.783C283.293 333.187 275.918 325.641 269.935 323.067C263.656 320.366 253.829 319.57 248.5 321.33ZM249.024 338.185C243.733 341.781 241 346.486 241 352C241 357.514 243.733 362.219 249.024 365.815C251.884 367.759 253.438 368.103 257.791 367.753C267.082 367.008 272.5 361.205 272.5 352C272.5 342.795 267.082 336.992 257.791 336.247C253.438 335.897 251.884 336.241 249.024 338.185ZM371.5 408.542C357.2 410.348 345.387 411.865 345.25 411.913C345.113 411.961 345 415.658 345 420.128V428.256L348.75 427.706C350.813 427.404 363.3 425.922 376.5 424.414C389.7 422.905 400.88 421.342 401.345 420.94C401.81 420.538 401.87 416.788 401.478 412.605C400.901 406.446 400.455 405.025 399.133 405.129C398.235 405.2 385.8 406.736 371.5 408.542ZM105 440V448H217H329V440V432H217H105V440ZM373 440.553C358.425 442.391 346.163 443.918 345.75 443.947C345.337 443.976 345 451.2 345 460C345 474.568 345.157 476.001 346.75 476.009C353.415 476.042 401.884 469.561 403.734 468.389C407.035 466.299 407.392 463.183 405.873 449.693C404.532 437.786 404.441 437.497 402 437.356C400.625 437.277 387.575 438.716 373 440.553ZM105 477.545C105 490.594 105.09 491.181 107.455 493.545L109.909 496H217H324.091L326.545 493.545C328.91 491.181 329 490.594 329 477.545V464H217H105V477.545Z" fill="black" fill-opacity="0.988"/>
</svg>
