<svg width="670" height="632" viewBox="0 0 670 632" fill="none" xmlns="http://www.w3.org/2000/svg">
<g clip-path="url(#clip0_108_521)">
<path fill-rule="evenodd" clip-rule="evenodd" d="M418.539 2.02939C408.337 3.3901 388.715 8.48865 378.945 12.3171C337.906 28.4016 305.291 58.773 286.265 98.6182C249.375 175.879 274.711 267.464 346.111 314.955C425.058 367.465 531.659 346.123 584.208 267.286C618.11 216.424 622.39 151.683 595.496 96.5304C590.191 85.6496 578.318 68.1012 569.358 57.8964C550.537 36.4598 524.122 19.194 495.692 9.74424C476.103 3.23387 467.552 1.83363 445.095 1.4585C434.207 1.27623 422.257 1.53371 418.539 2.02939ZM423.367 24.7525C390.059 29.7035 362.073 42.9962 339.57 64.5553C320.805 82.5328 307.976 102.333 300.414 124.991C284.968 171.268 293.046 221.578 322.256 261.025L328.556 269.535L330.192 264.731C340.012 235.901 368.398 211.508 404.345 201.011C405.066 200.799 403.422 198.87 400.482 196.478C389.311 187.389 379.8 171.948 376.9 158.189C374.831 148.367 375.563 132.114 378.465 123.473C388.154 94.62 413.525 76.0012 443.153 75.9993C469.696 75.9974 492.491 89.9796 504.043 113.347C509.53 124.447 511.196 131.643 511.189 144.206C511.184 152.544 510.706 156.362 508.954 162.047C504.648 176.011 496.253 188.78 486.379 196.383C483.856 198.325 481.792 200.038 481.792 200.189C481.792 200.339 485.377 201.645 489.759 203.09C500.068 206.489 514.243 213.615 523.049 219.824C536.801 229.521 549.91 245.084 555.334 258.152C556.511 260.986 557.773 263.304 558.14 263.304C558.507 263.304 560.974 260.158 563.621 256.312C584.487 226.011 593.349 189.273 588.525 153.077C585.46 130.08 577.486 109.083 564.097 88.7558C556.424 77.1044 536.235 57.176 523.759 48.9376C507.512 38.2091 490.653 31.1413 471.282 26.9368C464.197 25.3996 457.76 24.8509 444.13 24.6223C434.304 24.4564 424.961 24.5153 423.367 24.7525ZM431.093 100.667C418.071 104.969 408.49 113.257 402.812 125.131C399.316 132.443 399.225 132.917 399.225 143.724C399.225 154.231 399.39 155.161 402.356 161.417C406.42 169.985 410.364 174.867 417.405 180.043C425.669 186.118 433.944 188.409 445.873 187.923C453.913 187.595 456.161 187.108 461.791 184.472C479.694 176.086 490.853 155.87 487.785 137.381C485.369 122.82 475.832 109.961 462.606 103.434C455.809 100.079 454.759 99.8507 445.165 99.6279C438.665 99.4765 433.552 99.8536 431.093 100.667ZM423.588 220.337C400.103 224.48 381.617 233.942 367.115 249.242C358.689 258.13 352.506 269.066 350.438 278.734C348.48 287.89 348.981 289.005 357.699 294.896C373.396 305.502 391.444 313.229 410.445 317.478C419.237 319.443 423.024 319.719 441.233 319.719C457.616 319.719 463.727 319.35 470.204 317.971C490.986 313.546 513.849 303.345 529.688 291.432C538.144 285.071 538.281 284.904 537.987 281.234C537.26 272.198 529.863 258.118 521.049 248.993C507.763 235.237 491.658 226.423 471.169 221.692C460.32 219.188 434.308 218.446 423.588 220.337ZM225.082 332.363C222.784 333.167 217.134 336.043 212.528 338.754C204.772 343.32 138.67 385.904 122.835 396.536C119.008 399.105 115.692 401.207 115.466 401.207C115.239 401.207 112.721 397.506 109.87 392.981C103.902 383.512 99.2605 380.329 92.7034 381.207C90.1539 381.548 78.6698 388.129 54.3833 403.166C3.77557 434.498 5.15653 433.571 3.27051 437.538C-0.511185 445.498 -2.20213 442.331 54.9366 534.288C115.875 632.359 112.56 627.159 115.184 628.795C118.785 631.041 123.617 631.643 127.448 630.325C133.698 628.176 211.365 579.469 213.655 576.264C215.136 574.19 215.741 571.922 215.741 568.433C215.741 564.264 215.043 562.38 211.123 555.974C208.584 551.824 206.846 548.106 207.26 547.713C209.429 545.658 227.142 535.57 232.155 533.536C236.848 531.631 238.924 531.3 243.093 531.789C250.887 532.704 277.989 539.257 352.623 558.272C389.939 567.78 423.729 576.287 427.713 577.177C436.921 579.236 442.876 578.541 451.52 574.403C475.61 562.87 629.513 464.787 651.675 446.844C664.132 436.759 668.86 426.164 667.942 410.398C666.846 391.564 656.964 378.511 637.55 370.252C630.905 367.426 629.014 367.051 621.336 367.045C613.505 367.039 611.738 367.401 603.471 370.717C593.018 374.909 564.271 389.472 524.499 410.724C509.48 418.749 496.986 425.316 496.735 425.316C496.484 425.316 496.278 424.647 496.278 423.831C496.278 421.554 492.558 414.689 488.849 410.121C482.46 402.252 465.839 396.155 389.851 373.801C295.601 346.074 239.665 330.769 232.895 330.855C230.896 330.88 227.38 331.559 225.082 332.363ZM228.287 356.498C216.872 362.525 129.133 419.579 128.537 421.364C128.265 422.179 160.139 474.277 190.33 522.364L194.044 528.279L205.376 521.457C225.753 509.19 236.294 506.521 251.955 509.666C265.024 512.29 298.149 520.444 363.011 537.001C396.207 545.474 426.562 553.12 430.466 553.99L437.566 555.571L446.784 550.652C475.173 535.505 615.009 446.162 636.004 429.759C641.737 425.279 642.974 423.78 644.022 420.042C645.847 413.532 644.759 405.58 641.385 400.778C638.263 396.336 626.479 389.635 621.788 389.635C620.252 389.635 616.48 390.563 613.406 391.699C606.222 394.352 566.016 414.843 527.18 435.644L496.761 451.937L493.381 458.149C484.809 473.903 470.522 481.526 452.523 479.948C437.563 478.638 324.664 456.598 321.485 454.369C320.158 453.437 318.287 451.102 317.329 449.178C315.878 446.264 315.76 445.036 316.628 441.818C317.691 437.873 321.128 434.363 324.839 433.434C325.98 433.147 347.094 436.837 371.76 441.632C430.976 453.142 453.117 457.144 457.454 457.118C459.421 457.107 462.848 456.273 465.071 455.265C473.667 451.368 477.656 438.089 473.072 428.632C470.683 423.703 467.371 422.1 443.647 414.384C403.203 401.231 238.832 353.953 233.546 353.953C233.305 353.953 230.939 355.098 228.287 356.498ZM58.8139 426.668C41.552 437.428 27.5377 446.736 27.671 447.35C27.9259 448.521 124.086 603.594 125.446 605.027C126.566 606.207 191.145 565.973 190.323 564.608C172.086 534.356 92.0351 407.009 91.279 407.047C90.6851 407.077 76.0759 415.907 58.8139 426.668ZM78.1348 424.923C63.9834 431.052 62.4257 450.368 75.4337 458.413C87.9367 466.147 104.202 457.197 104.202 442.585C104.202 436.892 102.918 433.362 99.5531 429.808C93.8149 423.747 85.3235 421.81 78.1348 424.923ZM81.6384 437.923C78.58 440.324 78.3298 443.84 81.0251 446.532C84.8232 450.324 91.6479 447.582 91.6479 442.262C91.6479 439.912 87.6972 435.924 85.3708 435.924C84.717 435.924 83.0377 436.823 81.6384 437.923Z" fill="black"/>
</g>
<defs>
<clipPath id="clip0_108_521">
<rect width="668.267" height="631.653" fill="white" transform="translate(0.871094 0.0351562)"/>
</clipPath>
</defs>
</svg>
