<svg width="758" height="756" viewBox="0 0 758 756" fill="none" xmlns="http://www.w3.org/2000/svg">
<path fill-rule="evenodd" clip-rule="evenodd" d="M539.138 1.55948C503.723 4.14582 469.991 15.6769 440.788 35.1801C392.931 67.1426 361.377 117.116 353.277 173.778C351.131 188.785 351.623 217.303 354.287 232.339C359.149 259.787 369.78 287.267 383.589 308.08L385.033 310.258L345.882 310.21L306.73 310.162L325.068 292.545C335.153 282.856 344.19 273.404 345.15 271.541C347.803 266.393 347.525 258.368 344.524 253.476C341.35 248.298 272.424 178 268.49 175.929C264.357 173.751 254.666 173.834 250.383 176.083C245.376 178.713 159.802 260.377 157.204 265.005C154.411 269.98 154.299 277.293 156.934 282.672C157.977 284.801 163.903 291.771 170.102 298.159L181.374 309.774L142.005 310.027C120.353 310.166 102.468 310.113 102.259 309.909C102.052 309.704 97.4668 291.514 92.0701 269.486C86.6724 247.458 81.7511 228.18 81.1323 226.644C80.5136 225.11 78.9275 222.59 77.6085 221.044C72.8738 215.498 72.2276 215.4 40.857 215.4C7.78741 215.4 6.97423 215.567 2.99079 223.215C-0.231512 229.403 1.43022 235.484 7.39948 239.343C9.69565 240.828 13.3619 241.113 35.5016 241.534L60.9628 242.018L69.6751 277.348C95.5232 382.168 131.003 527.951 131.577 531.698C131.879 533.665 131.037 534.197 123.632 536.729C90.6009 548.023 75.3841 580.619 89.8564 609.076C94.6442 618.489 106.562 629.506 118.214 635.29C121.449 636.897 134.924 640.328 137.997 640.328C138.419 640.328 136.377 641.911 133.461 643.847C113.073 657.378 102.725 681.57 107.223 705.18C112.743 734.145 137.96 754.826 167.761 754.826C195.07 754.826 219.376 736.903 227.073 711.091C232.451 693.057 228.445 672.648 216.469 657.065C211.407 650.478 207.159 646.842 198.567 641.743L192.921 638.392H273.151H353.38L353.404 686.547C353.416 713.032 353.829 736.413 354.321 738.502C355.622 744.031 360.104 749.72 365.165 752.266L369.585 754.491L516.41 754.497C657.262 754.502 663.396 754.43 667.164 752.71C669.325 751.724 672.285 749.665 673.741 748.133C679.576 742 679.442 743.646 679.419 678.35C679.398 622.136 679.288 618.316 677.573 614.677C675.177 609.593 672.202 606.633 667.267 604.425C663.627 602.795 660.402 602.618 634.018 602.599L604.8 602.578V548.065C604.8 487.808 604.706 486.763 598.746 480.756C592.413 474.37 592.329 474.355 562.319 474.027L535.062 473.729L535.567 471.607C541.157 448.158 552.931 400.769 553.322 400.146C553.611 399.686 557.257 399.309 561.425 399.309C594.01 399.309 635.026 386.43 664.729 366.87C713.088 335.026 743.771 288.33 753.762 231.371C756.149 217.763 756.144 182.97 753.754 169.464C749.855 147.436 744.12 129.934 734.712 111.346C698.154 39.1196 620.641 -4.39339 539.138 1.55948ZM527.143 26.1443C460.17 36.8459 405.506 82.2696 384.421 144.74C366.323 198.359 375.796 258.631 409.412 303.75L414.261 310.258H419.176C422.75 310.258 424.092 309.886 424.092 308.895C424.092 306.326 433.85 288.485 438.726 282.139C449.406 268.238 467.683 253.838 485.333 245.418C489.758 243.307 498.579 239.897 504.936 237.842L516.494 234.102L512.279 231.358C506.068 227.314 497.131 218.638 492.247 211.908C482.511 198.494 477.902 184.128 477.839 167.003C477.788 153.179 479.568 145.672 485.986 132.64C491.694 121.052 498.371 112.823 507.893 105.634C524.401 93.1725 544.995 87.3862 564.92 89.6095C606.992 94.305 637.548 130.103 634.936 171.637C634.195 183.428 632.337 190.322 626.926 201.365C621.743 211.945 613.627 221.685 604.05 228.821L596.915 234.137L604.912 236.413C644.494 247.675 676.881 274.221 689.242 305.534L691.923 312.326L696.858 305.726C712.284 285.096 723.146 261.633 728.378 237.64C738.683 190.385 729.244 142.61 701.481 101.496C693.276 89.3463 677.564 72.5611 665.27 62.8149C643.517 45.57 616.419 33.1212 588.477 27.5372C574.792 24.8027 540.424 24.0216 527.143 26.1443ZM540.935 114.614C526.42 119.194 512.689 130.591 506.802 142.947C496.463 164.652 500.653 188.484 517.774 205.333C528.721 216.105 541.331 221.207 557.01 221.207C581.921 221.207 604.462 203.347 610.289 178.992C616.959 151.117 598.906 121.475 570.876 114.28C562.969 112.25 547.898 112.418 540.935 114.614ZM250.021 207.414L241.476 215.884L254.056 228.951C260.975 236.138 267.15 242.97 267.777 244.132C269.349 247.043 269.207 252.695 267.482 255.984C266.692 257.49 260.192 264.23 253.036 270.961C232.769 290.027 231.464 289.982 211.862 269.542L198.833 255.957L189.676 264.944C184.64 269.887 180.632 274.252 180.769 274.643C180.907 275.034 188.677 283.207 198.037 292.806L215.054 310.258H243.641H272.228L280.64 302.26C285.267 297.862 296.483 287.192 305.565 278.55L322.077 262.839L290.833 230.898C273.648 213.331 259.359 198.955 259.077 198.951C258.796 198.948 254.72 202.756 250.021 207.414ZM221.118 236.797L215.057 242.815L223.525 251.854C228.182 256.826 232.47 260.893 233.053 260.893C233.637 260.893 236.616 258.389 239.672 255.327L245.229 249.762L236.205 240.271L227.179 230.779L221.118 236.797ZM534.579 254.514C504.504 259.476 478.789 272.405 462.22 290.896C457.288 296.4 449.627 307.71 449.627 309.486C449.627 309.933 474.358 310.27 504.587 310.234C566.016 310.162 563.277 309.868 568.089 317.035C571.769 322.516 571.395 326.502 564.687 353.224L558.883 376.348L568.337 375.698C602.035 373.385 639.086 358.864 665.88 337.469C672.097 332.506 672.303 331.813 670.079 323.287C661.652 290.961 629.771 264.896 587.613 255.858C576.05 253.379 546.067 252.62 534.579 254.514ZM554.312 329.133C555.197 330.464 556.389 331.553 556.961 331.553C557.533 331.553 556.964 330.464 555.695 329.133C554.426 327.802 553.233 326.713 553.046 326.713C552.857 326.713 553.427 327.802 554.312 329.133ZM108.194 335.183C108.456 336.114 109.677 341.123 110.91 346.314L113.15 355.752H326.483H539.816L542.354 345.086C543.749 339.22 544.891 334.211 544.891 333.955C544.891 333.699 446.528 333.489 326.306 333.489C118.603 333.489 107.744 333.573 108.194 335.183ZM119.638 380.503C119.638 381.339 126.665 410.849 135.253 446.081C143.841 481.313 152.099 515.469 153.602 521.984C155.105 528.498 156.606 534.259 156.936 534.785C157.328 535.412 204.062 535.528 292.778 535.123L428.02 534.503V513.028C428.02 499.547 428.437 490.328 429.138 488.262C430.828 483.287 434.546 478.907 439.126 476.494C443.103 474.399 444.394 474.309 477.09 473.841L510.937 473.357L511.825 469.485C512.313 467.356 516.879 448.626 521.971 427.864C527.063 407.101 531.833 387.61 532.572 384.548L533.914 378.982H326.776C139.151 378.982 119.638 379.126 119.638 380.503ZM451.591 549.825V602.578H516.41H581.23V549.825V497.072H566.007H550.784L550.763 518.608C550.738 542.845 550.046 545.999 543.779 550.404C540.508 552.702 540.212 552.729 516.901 552.729C493.794 552.729 493.268 552.684 490.124 550.474C483.899 546.098 483.543 544.511 483.199 519.576L482.888 497.072H467.24H451.591V549.825ZM507.244 500.621C506.884 500.975 506.589 507.727 506.589 515.624V529.982H516.901H527.213V514.979V499.976H517.556C512.244 499.976 507.604 500.266 507.244 500.621ZM212.938 559.034C129.184 559.658 131.587 559.48 122.846 565.72C104.659 578.705 107.4 599.959 128.687 611.013L133.879 613.709L244.857 613.958L355.835 614.207L357.468 611.366C358.365 609.804 360.984 607.296 363.287 605.794L367.473 603.062L397.747 602.78L428.02 602.498V580.275V558.052L358.536 558.259C320.319 558.373 254.801 558.721 212.938 559.034ZM376.951 678.561V731.314H440.788H504.625V678.561V625.808H489.978H475.331L475.001 646.377C474.633 669.278 474.082 671.426 467.447 675.833C463.167 678.676 457.19 679.273 436.843 678.887C416.667 678.504 413.484 677.505 409.645 670.348C407.509 666.368 407.396 665.143 407.396 645.983V625.808H392.173H376.951V678.561ZM430.967 640.328V654.847H440.788H450.609V640.328V625.808H440.788H430.967V640.328ZM528.196 678.561V731.314H592.033H655.87V678.561V625.808H640.207H624.545L624.248 648.002C623.972 668.658 623.811 670.382 621.926 672.868C616.941 679.442 616.691 679.5 592.024 679.822C571.096 680.094 569.301 679.98 565.676 678.158C563.536 677.082 560.857 674.722 559.722 672.911C557.785 669.823 557.659 668.282 557.659 647.715V625.808H542.927H528.196V678.561ZM581.23 641.779V656.783H591.051H600.872V641.779V626.776H591.051H581.23V641.779ZM157.449 658.084C147.657 661.284 139.677 667.471 134.833 675.616C123.715 694.316 131.712 718.793 152.048 728.304C156.804 730.528 158.68 730.83 167.761 730.83C176.875 730.83 178.721 730.531 183.647 728.256C199.956 720.72 208.988 702.445 204.651 685.759C200.234 668.765 186.621 657.731 169.279 657.091C164.54 656.916 159.805 657.313 157.449 658.084Z" fill="black"/>
</svg>
