<svg width="138" height="104" viewBox="0 0 138 104" fill="none" xmlns="http://www.w3.org/2000/svg">
<mask id="path-1-inside-1_12119_1096" fill="white">
<path fill-rule="evenodd" clip-rule="evenodd" d="M0 8C0 3.58172 3.53055 0 7.88571 0H130.114C134.469 0 138 3.58172 138 8V35.9862L137.986 35.9862C129.269 35.9862 122.201 43.1558 122.201 52C122.201 60.8441 129.269 68.0138 137.986 68.0138L138 68.0138V96C138 100.418 134.469 104 130.114 104H7.88571C3.53055 104 0 100.418 0 96V68.0138C0.00453104 68.0138 0.00906397 68.0138 0.0135969 68.0138C8.73142 68.0138 15.7986 60.8441 15.7986 52C15.7986 43.1558 8.73142 35.9862 0.0135969 35.9862C0.00906397 35.9862 0.00453104 35.9862 0 35.9862V8Z"/>
</mask>
<path fill-rule="evenodd" clip-rule="evenodd" d="M0 8C0 3.58172 3.53055 0 7.88571 0H130.114C134.469 0 138 3.58172 138 8V35.9862L137.986 35.9862C129.269 35.9862 122.201 43.1558 122.201 52C122.201 60.8441 129.269 68.0138 137.986 68.0138L138 68.0138V96C138 100.418 134.469 104 130.114 104H7.88571C3.53055 104 0 100.418 0 96V68.0138C0.00453104 68.0138 0.00906397 68.0138 0.0135969 68.0138C8.73142 68.0138 15.7986 60.8441 15.7986 52C15.7986 43.1558 8.73142 35.9862 0.0135969 35.9862C0.00906397 35.9862 0.00453104 35.9862 0 35.9862V8Z" fill="#333838"/>
<path d="M138 35.9862L137.999 36.9862L139 36.9867V35.9862H138ZM137.986 35.9862L137.987 34.9862H137.986V35.9862ZM137.986 68.0138V69.0138H137.987L137.986 68.0138ZM138 68.0138H139V67.0132L137.999 67.0138L138 68.0138ZM0 68.0138V67.0138H-1V68.0138H0ZM0 35.9862H-1V36.9862H0V35.9862ZM7.88571 -1C2.96475 -1 -1 3.04305 -1 8H1C1 4.12039 4.09636 1 7.88571 1V-1ZM130.114 -1H7.88571V1H130.114V-1ZM139 8C139 3.04305 135.035 -1 130.114 -1V1C133.904 1 137 4.12039 137 8H139ZM139 35.9862V8H137V35.9862H139ZM138.001 34.9862L137.987 34.9862L137.986 36.9862L137.999 36.9862L138.001 34.9862ZM137.986 34.9862C128.703 34.9862 121.201 42.6171 121.201 52H123.201C123.201 43.6945 129.834 36.9862 137.986 36.9862V34.9862ZM121.201 52C121.201 61.3828 128.703 69.0138 137.986 69.0138V67.0138C129.834 67.0138 123.201 60.3055 123.201 52H121.201ZM137.987 69.0138L138.001 69.0138L137.999 67.0138L137.986 67.0138L137.987 69.0138ZM139 96V68.0138H137V96H139ZM130.114 105C135.035 105 139 100.957 139 96H137C137 99.8796 133.904 103 130.114 103V105ZM7.88571 105H130.114V103H7.88571V105ZM-1 96C-1 100.957 2.96475 105 7.88571 105V103C4.09636 103 1 99.8796 1 96H-1ZM-1 68.0138V96H1V68.0138H-1ZM0.0135969 67.0138C0.0118214 67.0138 0.00997564 67.0138 0.00763938 67.0138C0.00544345 67.0138 0.00275653 67.0138 0 67.0138V69.0138C0.00177451 69.0138 0.00361957 69.0138 0.0059561 69.0138C0.00815229 69.0138 0.0108395 69.0138 0.0135969 69.0138V67.0138ZM14.7986 52C14.7986 60.3055 8.16562 67.0138 0.0135969 67.0138V69.0138C9.29723 69.0138 16.7986 61.3828 16.7986 52H14.7986ZM0.0135969 36.9862C8.16562 36.9862 14.7986 43.6945 14.7986 52H16.7986C16.7986 42.6171 9.29723 34.9862 0.0135969 34.9862V36.9862ZM0 36.9862C0.00275653 36.9862 0.00544345 36.9862 0.00763938 36.9862C0.00997564 36.9862 0.0118214 36.9862 0.0135969 36.9862V34.9862C0.0108395 34.9862 0.00815229 34.9862 0.0059561 34.9862C0.00361957 34.9862 0.00177451 34.9862 0 34.9862V36.9862ZM-1 8V35.9862H1V8H-1Z" fill="white" fill-opacity="0.1" mask="url(#path-1-inside-1_12119_1096)"/>
</svg>
